M48
; DRILL file {KiCad 9.0.0} date 2025-08-18T03:11:07+0300
; FORMAT={-:-/ absolute / inch / decimal}
; #@! TF.CreationDate,2025-08-18T03:11:07+03:00
; #@! TF.GenerationSoftware,Kicad,Pcbnew,9.0.0
; #@! TF.FileFunction,Plated,1,4,PTH
FMAT,2
INCH
; #@! TA.AperFunction,Plated,PTH,ViaDrill
T1C0.0118
; #@! TA.AperFunction,Plated,PTH,ComponentDrill
T2C0.0236
; #@! TA.AperFunction,Plated,PTH,ComponentDrill
T3C0.0276
; #@! TA.AperFunction,Plated,PTH,ComponentDrill
T4C0.0307
; #@! TA.AperFunction,Plated,PTH,ComponentDrill
T5C0.0315
; #@! TA.AperFunction,Plated,PTH,ComponentDrill
T6C0.0374
; #@! TA.AperFunction,Plated,PTH,ComponentDrill
T7C0.0394
; #@! TA.AperFunction,Plated,PTH,ComponentDrill
T8C0.0461
; #@! TA.AperFunction,Plated,PTH,ComponentDrill
T9C0.0472
; #@! TA.AperFunction,Plated,PTH,ComponentDrill
T10C0.0591
; #@! TA.AperFunction,Plated,PTH,ComponentDrill
T11C0.0831
%
G90
G05
T1
X-3.5518Y-0.2128
X-3.5297Y-0.1921
X-3.51Y-0.1695
X-3.3142Y-0.2953
X-3.2709Y-0.8356
X-3.2256Y-0.8563
X-3.1252Y-0.5896
X-3.1173Y-0.7677
X-2.9677Y-0.5886
X-2.948Y-0.7756
X-2.825Y-0.0659
X-2.8181Y-0.1417
X-2.7551Y-0.0551
X-2.7472Y-0.122
X-2.7305Y-0.8494
X-2.3638Y-0.7339
X-2.3597Y-0.6957
X-2.3587Y-0.6567
X-1.7126Y-0.177
X-1.7126Y-0.4134
X-1.7126Y-0.5315
X-1.7126Y-0.6496
X-1.7126Y-0.7677
X-1.7106Y-0.2933
X-1.5157Y0.4567
X-1.3504Y0.9075
X-1.3465Y1.0846
X-1.3091Y0.9941
X-1.2992Y-0.4055
X-1.2717Y1.0807
X-1.2677Y0.9035
X-1.122Y-0.3742
X-1.1024Y-1.378
X-1.0984Y-1.4409
X-1.0879Y-1.3203
X-1.0866Y0.3661
X-1.0709Y-0.0906
X-0.8346Y-1.0512
X-0.7402Y-0.4213
X-0.7205Y-0.6732
X-0.7205Y-0.7598
X-0.6772Y-0.6732
X-0.6772Y-0.7598
X-0.6201Y-0.0394
X-0.5906Y-0.0591
X-0.4252Y-0.4843
X-0.4213Y-0.6772
X-0.378Y-0.6772
X-0.3769Y-0.5487
X-0.374Y-0.4134
X-0.3268Y0.9114
X-0.3228Y1.0807
X-0.2874Y0.9941
X-0.2559Y-0.4035
X-0.248Y1.0807
X-0.248Y0.9075
X-0.2205Y0.3937
X-0.1765Y-0.8064
X-0.1575Y-1.4173
X-0.1378Y-0.6854
X-0.1024Y-1.0157
X-0.1006Y-0.6893
X0.1181Y-0.5866
X0.1575Y-0.8661
X0.2047Y-0.6203
X0.2047Y-0.7008
X0.2657Y-0.1772
X0.2657Y-0.315
X0.2707Y-0.5994
X0.3051Y-0.6004
X0.378Y-1.1378
X0.4331Y-0.8819
X0.5039Y-0.5945
X0.5039Y-0.6496
X0.6299Y-1.1575
X0.6457Y-0.9173
X0.689Y0.0945
X0.7372Y-1.3467
X0.8661Y-1.2205
X0.8858Y-1.1299
X0.8976Y-0.5787
X0.8976Y-0.7756
X0.9055Y-0.6693
X0.9055Y-0.8661
X0.9321Y-1.3467
X0.9724Y0.0748
X0.9843Y-0.5197
X0.9921Y-1.2874
X1.0079Y-1.3622
X1.0591Y-0.5197
X1.063Y-1.3071
X1.063Y-1.3622
X1.1024Y-1.3386
X1.1122Y-0.585
X1.122Y-0.6791
X1.1417Y-0.9055
X1.1614Y-1.1319
X1.1679Y-0.5453
X1.1719Y-1.2835
X1.1811Y-1.3386
X1.1929Y-0.6693
X1.2106Y-1.0335
X1.2303Y-0.6252
X1.2402Y-0.4921
X1.2598Y-1.3386
X1.3386Y-1.3386
X1.378Y-0.5118
X1.4173Y-1.3386
X1.4567Y-0.5118
X1.4961Y-1.3386
X1.5354Y-0.5118
X1.5748Y-1.3386
X1.5827Y-0.0748
X1.5827Y-0.1299
X1.6142Y-0.5118
X1.622Y0.2953
X1.6535Y-1.3386
X1.6929Y-0.5118
X1.7323Y-1.3386
X1.7717Y-0.5118
X1.811Y-1.3386
X1.8504Y-0.5118
X1.8898Y-1.3386
X1.9291Y-0.5118
X1.9685Y-0.5512
X1.9685Y-0.6299
X1.9685Y-0.7087
X1.9685Y-0.7874
X1.9685Y-0.8661
X1.9685Y-0.9449
X1.9685Y-1.0236
X1.9685Y-1.1024
X1.9685Y-1.1811
X1.9685Y-1.2598
X1.9685Y-1.3386
T2
X0.5669Y0.2087
X0.6677Y0.2087
X0.7685Y0.2087
X0.8693Y0.2087
X0.9701Y0.2087
X1.0709Y0.2087
T3
X0.9114Y-0.9606
X0.9114Y-1.0709
X0.9862Y-1.0157
T4
X1.2618Y-0.9642
X1.2618Y-1.1642
X1.2618Y-1.4642
X1.2618Y-1.5642
T5
X1.1894Y0.3077
X1.1894Y0.0077
X1.2894Y0.3077
X1.2894Y0.0077
X1.3894Y0.3077
X1.3894Y0.0077
T6
X-1.5856Y-1.122
X-1.5856Y-1.2205
X-1.5856Y-1.3189
X-1.5856Y-1.4173
X-1.5856Y-1.5157
X-1.5856Y-1.6142
X-1.3081Y-1.3209
X-1.3081Y-1.4193
X-1.3081Y-1.5177
X-1.3081Y-1.6161
X-0.9402Y0.1633
X-0.9402Y0.0649
X-0.9402Y-0.0336
X-0.9402Y-0.132
X-0.9402Y-0.2304
X-0.9402Y-0.3288
X-0.9402Y-0.4273
X-0.9402Y-0.5257
X-0.9313Y-0.7816
X-0.9313Y-0.88
X-0.9313Y-0.9784
X1.3189Y-0.3248
X1.4173Y-0.3248
X1.5157Y-0.3248
X1.6142Y-0.3248
T7
X-1.4Y0.6
X-1.4Y0.5
X-1.4Y0.4
X-1.4Y0.3
X-1.4Y0.2
X-1.4Y0.1
X-1.4Y0.0
X-1.4Y-0.1
X-1.4Y-0.2
X-1.4Y-0.3
X-1.3Y0.6
X-1.3Y0.5
X-1.3Y0.4
X-1.3Y0.3
X-1.3Y0.2
X-1.3Y0.1
X-1.3Y0.0
X-1.3Y-0.1
X-1.3Y-0.2
X-1.3Y-0.3
X-1.2Y0.6
X-1.2Y0.5
X-1.2Y0.4
X-1.2Y0.3
X-1.2Y0.2
X-1.2Y0.1
X-1.2Y0.0
X-1.2Y-0.1
X-1.2Y-0.2
X-1.2Y-0.3
X-0.889Y-1.2698
X-0.889Y-1.3682
X-0.3929Y-1.2737
X-0.3929Y-1.3721
X-0.0551Y0.4382
X-0.0551Y0.3382
X-0.0551Y0.2382
X-0.0551Y0.1382
X-0.0551Y0.0382
X-0.0551Y-0.0618
X-0.0551Y-0.1618
X-0.0551Y-0.2618
X-0.0551Y-0.3618
X-0.0551Y-0.4618
X-0.0551Y-0.5618
X-0.0551Y-0.6618
X-0.0551Y-0.7618
X-0.0551Y-0.8618
X-0.0551Y-0.9618
X-0.0551Y-1.0618
X-0.0551Y-1.1618
X-0.0551Y-1.2618
X-0.0551Y-1.3618
X-0.0551Y-1.4618
X0.0449Y0.4382
X0.0449Y0.3382
X0.0449Y0.2382
X0.0449Y0.1382
X0.0449Y0.0382
X0.0449Y-0.0618
X0.0449Y-0.1618
X0.0449Y-0.2618
X0.0449Y-0.3618
X0.0449Y-0.4618
X0.0449Y-0.5618
X0.0449Y-0.6618
X0.0449Y-0.7618
X0.0449Y-0.8618
X0.0449Y-0.9618
X0.0449Y-1.0618
X0.0449Y-1.1618
X0.0449Y-1.2618
X0.0449Y-1.3618
X0.0449Y-1.4618
X0.374Y-1.3386
X0.4724Y-1.3386
X0.5807Y-0.3248
X0.6791Y-0.3248
X0.9252Y-0.3248
X1.0236Y-0.3248
X1.2087Y0.6496
X1.3583Y0.6496
T8
X1.6142Y-0.7677
T9
X0.7244Y1.6654
X0.7244Y1.2638
X0.7244Y0.7598
X0.7244Y0.4646
T10
X-1.5391Y1.2402
X-1.5391Y0.9252
X-0.0233Y1.3484
X-0.0233Y0.9252
T11
X1.4843Y-0.6417
X1.4843Y-0.9016
X1.7441Y-0.6417
X1.7441Y-0.9016
M30
