G04 #@! TF.GenerationSoftware,KiCad,Pcbnew,9.0.0*
G04 #@! TF.CreationDate,2025-08-18T03:10:06+03:00*
G04 #@! TF.ProjectId,MicrogreenFarm_second_try,4d696372-6f67-4726-9565-6e4661726d5f,rev?*
G04 #@! TF.SameCoordinates,Original*
G04 #@! TF.FileFunction,Copper,L4,Bot*
G04 #@! TF.FilePolarity,Positive*
%FSLAX46Y46*%
G04 Gerber Fmt 4.6, Leading zero omitted, Abs format (unit mm)*
G04 Created by KiCad (PCBNEW 9.0.0) date 2025-08-18 03:10:06*
%MOMM*%
%LPD*%
G01*
G04 APERTURE LIST*
G04 Aperture macros list*
%AMRoundRect*
0 Rectangle with rounded corners*
0 $1 Rounding radius*
0 $2 $3 $4 $5 $6 $7 $8 $9 X,Y pos of 4 corners*
0 Add a 4 corners polygon primitive as box body*
4,1,4,$2,$3,$4,$5,$6,$7,$8,$9,$2,$3,0*
0 Add four circle primitives for the rounded corners*
1,1,$1+$1,$2,$3*
1,1,$1+$1,$4,$5*
1,1,$1+$1,$6,$7*
1,1,$1+$1,$8,$9*
0 Add four rect primitives between the rounded corners*
20,1,$1+$1,$2,$3,$4,$5,0*
20,1,$1+$1,$4,$5,$6,$7,0*
20,1,$1+$1,$6,$7,$8,$9,0*
20,1,$1+$1,$8,$9,$2,$3,0*%
%AMFreePoly0*
4,1,23,0.500000,-0.750000,0.000000,-0.750000,0.000000,-0.745722,-0.065263,-0.745722,-0.191342,-0.711940,-0.304381,-0.646677,-0.396677,-0.554381,-0.461940,-0.441342,-0.495722,-0.315263,-0.495722,-0.250000,-0.500000,-0.250000,-0.500000,0.250000,-0.495722,0.250000,-0.495722,0.315263,-0.461940,0.441342,-0.396677,0.554381,-0.304381,0.646677,-0.191342,0.711940,-0.065263,0.745722,0.000000,0.745722,
0.000000,0.750000,0.500000,0.750000,0.500000,-0.750000,0.500000,-0.750000,$1*%
%AMFreePoly1*
4,1,23,0.000000,0.745722,0.065263,0.745722,0.191342,0.711940,0.304381,0.646677,0.396677,0.554381,0.461940,0.441342,0.495722,0.315263,0.495722,0.250000,0.500000,0.250000,0.500000,-0.250000,0.495722,-0.250000,0.495722,-0.315263,0.461940,-0.441342,0.396677,-0.554381,0.304381,-0.646677,0.191342,-0.711940,0.065263,-0.745722,0.000000,-0.745722,0.000000,-0.750000,-0.500000,-0.750000,
-0.500000,0.750000,0.000000,0.750000,0.000000,0.745722,0.000000,0.745722,$1*%
G04 Aperture macros list end*
G04 #@! TA.AperFunction,EtchedComponent*
%ADD10C,0.000000*%
G04 #@! TD*
G04 #@! TA.AperFunction,ComponentPad*
%ADD11RoundRect,0.250000X-0.725000X0.600000X-0.725000X-0.600000X0.725000X-0.600000X0.725000X0.600000X0*%
G04 #@! TD*
G04 #@! TA.AperFunction,ComponentPad*
%ADD12O,1.950000X1.700000*%
G04 #@! TD*
G04 #@! TA.AperFunction,ComponentPad*
%ADD13R,1.700000X1.700000*%
G04 #@! TD*
G04 #@! TA.AperFunction,ComponentPad*
%ADD14O,1.700000X1.700000*%
G04 #@! TD*
G04 #@! TA.AperFunction,ComponentPad*
%ADD15RoundRect,0.250000X0.600000X0.750000X-0.600000X0.750000X-0.600000X-0.750000X0.600000X-0.750000X0*%
G04 #@! TD*
G04 #@! TA.AperFunction,ComponentPad*
%ADD16O,1.700000X2.000000*%
G04 #@! TD*
G04 #@! TA.AperFunction,ComponentPad*
%ADD17RoundRect,0.250000X0.600000X0.725000X-0.600000X0.725000X-0.600000X-0.725000X0.600000X-0.725000X0*%
G04 #@! TD*
G04 #@! TA.AperFunction,ComponentPad*
%ADD18O,1.700000X1.950000*%
G04 #@! TD*
G04 #@! TA.AperFunction,ComponentPad*
%ADD19R,2.000000X2.000000*%
G04 #@! TD*
G04 #@! TA.AperFunction,ComponentPad*
%ADD20C,2.000000*%
G04 #@! TD*
G04 #@! TA.AperFunction,ComponentPad*
%ADD21C,3.000000*%
G04 #@! TD*
G04 #@! TA.AperFunction,ComponentPad*
%ADD22RoundRect,0.250000X0.550000X-0.550000X0.550000X0.550000X-0.550000X0.550000X-0.550000X-0.550000X0*%
G04 #@! TD*
G04 #@! TA.AperFunction,ComponentPad*
%ADD23C,1.600000*%
G04 #@! TD*
G04 #@! TA.AperFunction,ComponentPad*
%ADD24O,3.000000X2.000000*%
G04 #@! TD*
G04 #@! TA.AperFunction,ComponentPad*
%ADD25R,1.270000X1.270000*%
G04 #@! TD*
G04 #@! TA.AperFunction,ComponentPad*
%ADD26C,1.270000*%
G04 #@! TD*
G04 #@! TA.AperFunction,ComponentPad*
%ADD27R,1.508000X1.508000*%
G04 #@! TD*
G04 #@! TA.AperFunction,ComponentPad*
%ADD28C,1.508000*%
G04 #@! TD*
G04 #@! TA.AperFunction,SMDPad,CuDef*
%ADD29FreePoly0,0.000000*%
G04 #@! TD*
G04 #@! TA.AperFunction,SMDPad,CuDef*
%ADD30FreePoly1,0.000000*%
G04 #@! TD*
G04 #@! TA.AperFunction,ComponentPad*
%ADD31R,1.288000X1.288000*%
G04 #@! TD*
G04 #@! TA.AperFunction,ComponentPad*
%ADD32C,1.288000*%
G04 #@! TD*
G04 #@! TA.AperFunction,SMDPad,CuDef*
%ADD33R,2.000000X6.000000*%
G04 #@! TD*
G04 #@! TA.AperFunction,SMDPad,CuDef*
%ADD34R,2.000000X3.500000*%
G04 #@! TD*
G04 #@! TA.AperFunction,SMDPad,CuDef*
%ADD35RoundRect,0.150000X0.150000X-0.825000X0.150000X0.825000X-0.150000X0.825000X-0.150000X-0.825000X0*%
G04 #@! TD*
G04 #@! TA.AperFunction,ComponentPad*
%ADD36RoundRect,0.250000X-0.600000X-0.750000X0.600000X-0.750000X0.600000X0.750000X-0.600000X0.750000X0*%
G04 #@! TD*
G04 #@! TA.AperFunction,ComponentPad*
%ADD37RoundRect,0.250000X0.750000X-0.600000X0.750000X0.600000X-0.750000X0.600000X-0.750000X-0.600000X0*%
G04 #@! TD*
G04 #@! TA.AperFunction,ComponentPad*
%ADD38O,2.000000X1.700000*%
G04 #@! TD*
G04 #@! TA.AperFunction,SMDPad,CuDef*
%ADD39RoundRect,0.160000X-0.197500X-0.160000X0.197500X-0.160000X0.197500X0.160000X-0.197500X0.160000X0*%
G04 #@! TD*
G04 #@! TA.AperFunction,SMDPad,CuDef*
%ADD40RoundRect,0.160000X0.160000X-0.197500X0.160000X0.197500X-0.160000X0.197500X-0.160000X-0.197500X0*%
G04 #@! TD*
G04 #@! TA.AperFunction,ComponentPad*
%ADD41C,1.108000*%
G04 #@! TD*
G04 #@! TA.AperFunction,SMDPad,CuDef*
%ADD42RoundRect,0.160000X0.197500X0.160000X-0.197500X0.160000X-0.197500X-0.160000X0.197500X-0.160000X0*%
G04 #@! TD*
G04 #@! TA.AperFunction,SMDPad,CuDef*
%ADD43RoundRect,0.150000X0.825000X0.150000X-0.825000X0.150000X-0.825000X-0.150000X0.825000X-0.150000X0*%
G04 #@! TD*
G04 #@! TA.AperFunction,SMDPad,CuDef*
%ADD44RoundRect,0.155000X0.212500X0.155000X-0.212500X0.155000X-0.212500X-0.155000X0.212500X-0.155000X0*%
G04 #@! TD*
G04 #@! TA.AperFunction,ComponentPad*
%ADD45R,3.000000X3.000000*%
G04 #@! TD*
G04 #@! TA.AperFunction,ViaPad*
%ADD46C,0.600000*%
G04 #@! TD*
G04 #@! TA.AperFunction,ViaPad*
%ADD47C,0.500000*%
G04 #@! TD*
G04 #@! TA.AperFunction,Conductor*
%ADD48C,0.200000*%
G04 #@! TD*
G04 #@! TA.AperFunction,Conductor*
%ADD49C,3.000000*%
G04 #@! TD*
G04 #@! TA.AperFunction,Conductor*
%ADD50C,1.000000*%
G04 #@! TD*
G04 APERTURE END LIST*
D10*
G04 #@! TA.AperFunction,EtchedComponent*
G36*
X12000000Y-16050000D02*
G01*
X11500000Y-16050000D01*
X11500000Y-15450000D01*
X12000000Y-15450000D01*
X12000000Y-16050000D01*
G37*
G04 #@! TD.AperFunction*
D11*
X-40275000Y-28500000D03*
D12*
X-40275000Y-31000000D03*
X-40275000Y-33500000D03*
X-40275000Y-36000000D03*
X-40275000Y-38500000D03*
X-40275000Y-41000000D03*
D13*
X-35560000Y5080000D03*
D14*
X-33020000Y5080000D03*
X-30480000Y5080000D03*
D15*
X26000000Y-8250000D03*
D16*
X23500000Y-8250000D03*
D13*
X-35560000Y2540000D03*
D14*
X-33020000Y2540000D03*
X-30480000Y2540000D03*
D15*
X17250000Y-8250000D03*
D16*
X14750000Y-8250000D03*
D13*
X-35560000Y-7620000D03*
D14*
X-33020000Y-7620000D03*
X-30480000Y-7620000D03*
D17*
X41000000Y-8250000D03*
D18*
X38500000Y-8250000D03*
X36000000Y-8250000D03*
X33500000Y-8250000D03*
D13*
X-35560000Y-2540000D03*
D14*
X-33020000Y-2540000D03*
X-30480000Y-2540000D03*
D19*
X34500000Y16500000D03*
D20*
X30700000Y16500000D03*
D13*
X-35560000Y7620000D03*
D14*
X-33020000Y7620000D03*
X-30480000Y7620000D03*
D13*
X-35560000Y15240000D03*
D14*
X-33020000Y15240000D03*
X-30480000Y15240000D03*
D20*
X41000000Y-19500000D03*
D21*
X37700000Y-16300000D03*
X37700000Y-22900000D03*
X44300000Y-16300000D03*
X44300000Y-22900000D03*
D13*
X-35560000Y-5080000D03*
D14*
X-33020000Y-5080000D03*
X-30480000Y-5080000D03*
D22*
X30210000Y195000D03*
D23*
X32750000Y195000D03*
X35290000Y195000D03*
X35290000Y7815000D03*
X32750000Y7815000D03*
X30210000Y7815000D03*
D24*
X18400000Y32100000D03*
X18400000Y42300000D03*
X18400000Y11800000D03*
X18400000Y19300000D03*
D11*
X-33225000Y-33550000D03*
D12*
X-33225000Y-36050000D03*
X-33225000Y-38550000D03*
X-33225000Y-41050000D03*
D13*
X-35560000Y12700000D03*
D14*
X-33020000Y12700000D03*
X-30480000Y12700000D03*
D25*
X23150000Y-24400000D03*
D26*
X23150000Y-27200000D03*
X25050000Y-25800000D03*
D13*
X-35560000Y10160000D03*
D14*
X-33020000Y10160000D03*
X-30480000Y10160000D03*
D27*
X-1400000Y11130000D03*
D28*
X1140000Y11130000D03*
X-1400000Y8590000D03*
X1140000Y8590000D03*
X-1400000Y6050000D03*
X1140000Y6050000D03*
X-1400000Y3510000D03*
X1140000Y3510000D03*
X-1400000Y970000D03*
X1140000Y970000D03*
X-1400000Y-1570000D03*
X1140000Y-1570000D03*
X-1400000Y-4110000D03*
X1140000Y-4110000D03*
X-1400000Y-6650000D03*
X1140000Y-6650000D03*
X-1400000Y-9190000D03*
X1140000Y-9190000D03*
X-1400000Y-11730000D03*
X1140000Y-11730000D03*
X-1400000Y-14270000D03*
X1140000Y-14270000D03*
X-1400000Y-16810000D03*
X1140000Y-16810000D03*
X-1400000Y-19350000D03*
X1140000Y-19350000D03*
X-1400000Y-21890000D03*
X1140000Y-21890000D03*
X-1400000Y-24430000D03*
X1140000Y-24430000D03*
X-1400000Y-26970000D03*
X1140000Y-26970000D03*
X-1400000Y-29510000D03*
X1140000Y-29510000D03*
X-1400000Y-32050000D03*
X1140000Y-32050000D03*
X-1400000Y-34590000D03*
X1140000Y-34590000D03*
X-1400000Y-37130000D03*
X1140000Y-37130000D03*
D13*
X-35560000Y0D03*
D14*
X-33020000Y0D03*
X-30480000Y0D03*
D29*
X11100000Y-15750000D03*
D30*
X12400000Y-15750000D03*
D31*
X32050000Y-39730000D03*
D32*
X32050000Y-37190000D03*
X32050000Y-29570000D03*
X32050000Y-24490000D03*
D33*
X25750000Y34250000D03*
D34*
X25750000Y25000000D03*
D33*
X29750000Y34250000D03*
D34*
X29750000Y25000000D03*
D35*
X32205000Y-18800000D03*
X30935000Y-18800000D03*
X29665000Y-18800000D03*
X28395000Y-18800000D03*
X28395000Y-13850000D03*
X29665000Y-13850000D03*
X30935000Y-13850000D03*
X32205000Y-13850000D03*
D36*
X9500000Y-34000000D03*
D16*
X12000000Y-34000000D03*
D11*
X-23655000Y-19852500D03*
D12*
X-23655000Y-22352500D03*
X-23655000Y-24852500D03*
D37*
X-9980000Y-34852500D03*
D38*
X-9980000Y-32352500D03*
D33*
X9000000Y34000000D03*
D34*
X9000000Y24750000D03*
D33*
X13000000Y34000000D03*
D34*
X13000000Y24750000D03*
D33*
X35750000Y34250000D03*
D34*
X35750000Y25000000D03*
D33*
X39750000Y34250000D03*
D34*
X39750000Y25000000D03*
D29*
X38550000Y-2600000D03*
D30*
X39850000Y-2600000D03*
D39*
X23102500Y2200000D03*
X24297500Y2200000D03*
D40*
X16000000Y-24847500D03*
X16000000Y-23652500D03*
D41*
X24639600Y5300000D03*
X16959600Y5300000D03*
X19519600Y5300000D03*
X22079600Y5300000D03*
X27199600Y5300000D03*
X14399600Y5300000D03*
D42*
X9195000Y-17500000D03*
X8000000Y-17500000D03*
D11*
X-23880000Y4147500D03*
D12*
X-23880000Y1647500D03*
X-23880000Y-852500D03*
X-23880000Y-3352500D03*
X-23880000Y-5852500D03*
X-23880000Y-8352500D03*
X-23880000Y-10852500D03*
X-23880000Y-13352500D03*
D43*
X13475000Y-19820000D03*
X13475000Y-21090000D03*
X13475000Y-22360000D03*
X13475000Y-23630000D03*
X13475000Y-24900000D03*
X13475000Y-26170000D03*
X13475000Y-27440000D03*
X13475000Y-28710000D03*
X8525000Y-28710000D03*
X8525000Y-27440000D03*
X8525000Y-26170000D03*
X8525000Y-24900000D03*
X8525000Y-23630000D03*
X8525000Y-22360000D03*
X8525000Y-21090000D03*
X8525000Y-19820000D03*
D37*
X-22580000Y-34752500D03*
D38*
X-22580000Y-32252500D03*
D44*
X18967500Y2100000D03*
X17832500Y2100000D03*
D45*
X-592500Y34250000D03*
D21*
X-592500Y23500000D03*
X-39092500Y23500000D03*
X-39092500Y31500000D03*
D42*
X9097500Y-15750000D03*
X7902500Y-15750000D03*
X24297500Y300000D03*
X23102500Y300000D03*
D44*
X18967500Y100000D03*
X17832500Y100000D03*
D46*
X-69980000Y-1400000D03*
X-71755000Y-1675000D03*
X-74880000Y-19700000D03*
X-75380000Y-14950000D03*
X-81930000Y-21750000D03*
X-71580000Y-3600000D03*
X-69780000Y-3100000D03*
X-79180000Y-19500000D03*
X-69355000Y-21575000D03*
X-83080000Y-21225000D03*
X-79380000Y-14975000D03*
X-89155000Y-4305000D03*
X-89655000Y-4880000D03*
X-59935439Y-17669897D03*
X-60040000Y-18640000D03*
X-59910000Y-16680000D03*
X-90215000Y-5405000D03*
X-84180000Y-7500000D03*
X12800000Y-16500000D03*
D47*
X-6300000Y23050000D03*
D46*
X-17200000Y-19300000D03*
X40200000Y-3300000D03*
X-43500000Y-19500000D03*
X-18300000Y-17100000D03*
D47*
X-32300000Y27450000D03*
X-34300000Y23050000D03*
D46*
X-18300000Y-19300000D03*
X-17200000Y-17100000D03*
X24700000Y1900000D03*
X17500000Y2400000D03*
X9600000Y-28900000D03*
D47*
X-34200000Y27550000D03*
D46*
X16400000Y-23300000D03*
X12800000Y-15100000D03*
D47*
X-8200000Y27450000D03*
X-6300000Y27450000D03*
D46*
X18725000Y-34205000D03*
X-10700000Y-17200000D03*
D47*
X-7300000Y25250000D03*
X-33250000Y25250000D03*
X-32200000Y22950000D03*
X-8300000Y23150000D03*
D46*
X-9600000Y-17200000D03*
X40200000Y-1900000D03*
X45000000Y-13000000D03*
X50000000Y-32000000D03*
X50000000Y-30000000D03*
D47*
X27000000Y-33200000D03*
D46*
X38000000Y-34000000D03*
X32000000Y-34000000D03*
X22500000Y-28700000D03*
X42000000Y-34000000D03*
D47*
X25600000Y-34600000D03*
D46*
X39000000Y-13000000D03*
X23000000Y-17000000D03*
D47*
X23675000Y-34205000D03*
D46*
X50000000Y-24000000D03*
D47*
X29767500Y-32600000D03*
D46*
X50000000Y-34000000D03*
X23000000Y-22000000D03*
X47000000Y-13000000D03*
X50000000Y-18000000D03*
X28000000Y-34000000D03*
X48000000Y-34000000D03*
D47*
X27000000Y-34600000D03*
D46*
X46000000Y-34000000D03*
X40000000Y-34000000D03*
D47*
X30300000Y-17000000D03*
D46*
X49000000Y-13000000D03*
X37000000Y-13000000D03*
X26900000Y-13200000D03*
X35000000Y-13000000D03*
X41000000Y-13000000D03*
X50000000Y-22000000D03*
X36000000Y-34000000D03*
D47*
X22800000Y-19700000D03*
D46*
X50000000Y-16000000D03*
X30000000Y-34000000D03*
X34000000Y-34000000D03*
X50000000Y-14000000D03*
X25000000Y-13200000D03*
X43000000Y-13000000D03*
X50000000Y-26000000D03*
X50000000Y-20000000D03*
X50000000Y-28000000D03*
X44000000Y-34000000D03*
X31500000Y-12500000D03*
D47*
X22800000Y-14700000D03*
X41200000Y7500000D03*
D46*
X-43500000Y-4495554D03*
D47*
X-18800000Y-10700000D03*
D46*
X-6500000Y-10250000D03*
X-9500000Y-10500000D03*
X-43500000Y-10500000D03*
X-27200000Y-2300000D03*
D47*
X-27600000Y9300000D03*
D46*
X-27633530Y-33535000D03*
X-33000000Y-10300000D03*
X-4000000Y-36000000D03*
X-28000000Y-35000000D03*
X16000000Y-29400000D03*
X-28500000Y-9503500D03*
X-4483550Y-20483550D03*
X3000000Y-14900000D03*
X4000000Y-22000000D03*
D47*
X-2600000Y-25800000D03*
D46*
X5200000Y-15755000D03*
X6875735Y-15224265D03*
X-43500000Y-13500000D03*
X-38500000Y11600000D03*
X11000000Y-22400000D03*
X-43500000Y-16500000D03*
X7750000Y-15250000D03*
X-15750000Y-1000000D03*
X-27900000Y-36600000D03*
X-21200000Y-26700000D03*
X-15000000Y-1500000D03*
X-43450000Y-7450000D03*
X6750000Y-8000000D03*
X6750000Y-4500000D03*
X-9572050Y-13936191D03*
X-2555571Y-17507041D03*
X-3500000Y-17410000D03*
X-10800000Y-12300000D03*
X22000000Y-31000000D03*
X29000000Y-23000000D03*
X31250000Y-15879999D03*
X30750000Y-26250000D03*
X25200000Y-32700000D03*
X29500000Y-28750000D03*
X28500000Y-17250000D03*
X5200000Y-17800000D03*
X29665000Y-13850000D03*
X28250000Y-14860000D03*
X-5600000Y10000000D03*
D48*
X17832500Y965000D02*
X18967500Y2100000D01*
X23102500Y2200000D02*
X19067500Y2200000D01*
X12146500Y-23276499D02*
X12146500Y-19453500D01*
X13475000Y-23630000D02*
X12500001Y-23630000D01*
X19067500Y2200000D02*
X18967500Y2100000D01*
X18100000Y-13500000D02*
X18100000Y-9100000D01*
X17832500Y100000D02*
X17832500Y965000D01*
X12500001Y-23630000D02*
X12146500Y-23276499D01*
X17832500Y-900000D02*
X17832500Y100000D01*
X18100000Y-9100000D02*
X17250000Y-8250000D01*
X12146500Y-19453500D02*
X18100000Y-13500000D01*
X16929000Y-7929000D02*
X17597500Y-7260500D01*
X17597500Y-1135000D02*
X17832500Y-900000D01*
X17597500Y-7260500D02*
X17597500Y-1135000D01*
X13475000Y-21090000D02*
X14450000Y-21090000D01*
X14450000Y-21090000D02*
X19400000Y-16140000D01*
X23676500Y921000D02*
X24297500Y300000D01*
X26000000Y-8250000D02*
X23988600Y-6238600D01*
X23988600Y-8900D02*
X24297500Y300000D01*
X18967500Y100000D02*
X19788500Y921000D01*
X23988600Y-6238600D02*
X20761400Y-6238600D01*
X23988600Y-6238600D02*
X23988600Y-8900D01*
X19788500Y921000D02*
X23676500Y921000D01*
X20761400Y-6238600D02*
X19400000Y-7600000D01*
X19400000Y-16140000D02*
X19400000Y-7600000D01*
X32205000Y-13205000D02*
X32205000Y-13850000D01*
X31500000Y-12500000D02*
X32205000Y-13205000D01*
D49*
X35500000Y7028051D02*
X35951000Y7479051D01*
X39750000Y21750000D02*
X34500000Y16500000D01*
X30210000Y7815000D02*
X30210000Y6683630D01*
X35500000Y6750000D02*
X35500000Y7028051D01*
X30210000Y6683630D02*
X31579630Y5314000D01*
X35951000Y7479051D02*
X35951000Y15049000D01*
X39750000Y34250000D02*
X39750000Y25000000D01*
X34064000Y5314000D02*
X35500000Y6750000D01*
X31579630Y5314000D02*
X34064000Y5314000D01*
X39750000Y25000000D02*
X39750000Y21750000D01*
X35951000Y15049000D02*
X34500000Y16500000D01*
X25750000Y21450000D02*
X30700000Y16500000D01*
X25750000Y25000000D02*
X25750000Y21450000D01*
X25750000Y34250000D02*
X25750000Y25000000D01*
D50*
X12900000Y-8200000D02*
X14700000Y-8200000D01*
D48*
X-2460000Y-10250000D02*
X-1400000Y-9190000D01*
X-7657822Y-11407822D02*
X-6500000Y-10250000D01*
D50*
X9250000Y-11850000D02*
X9250000Y-19095000D01*
X12900000Y3440000D02*
X12900000Y-8200000D01*
D48*
X-9500000Y-10500000D02*
X-8592178Y-11407822D01*
X-18800000Y-10700000D02*
X-19000000Y-10700000D01*
X-19152500Y-10852500D02*
X-23880000Y-10852500D01*
D50*
X12900000Y-8200000D02*
X9250000Y-11850000D01*
D48*
X-8592178Y-11407822D02*
X-7657822Y-11407822D01*
D50*
X-33225000Y-33550000D02*
X-35225000Y-33550000D01*
X-1400000Y11130000D02*
X55000Y12585000D01*
X8525000Y-19820000D02*
X8525000Y-21090000D01*
X-35225000Y-33550000D02*
X-40275000Y-28500000D01*
D48*
X-6500000Y-10250000D02*
X-2460000Y-10250000D01*
D50*
X3755000Y12585000D02*
X12900000Y3440000D01*
X14700000Y-8200000D02*
X14750000Y-8250000D01*
X9250000Y-19095000D02*
X8525000Y-19820000D01*
X55000Y12585000D02*
X3755000Y12585000D01*
D48*
X-19000000Y-10700000D02*
X-19152500Y-10852500D01*
X-27633530Y-33535000D02*
X-345000Y-33535000D01*
X-345000Y-33535000D02*
X1140000Y-32050000D01*
X-27200000Y8900000D02*
X-27200000Y-2300000D01*
X-27600000Y9300000D02*
X-27200000Y8900000D01*
X-5000000Y-37000000D02*
X-4000000Y-36000000D01*
X-34171000Y-8096760D02*
X-34171000Y1389000D01*
X-33000000Y-10300000D02*
X-33095760Y-10204240D01*
X-33095760Y-9172000D02*
X-34171000Y-8096760D01*
X-34171000Y1389000D02*
X-33020000Y2540000D01*
X-33095760Y-10204240D02*
X-33095760Y-9172000D01*
X-28000000Y-35000000D02*
X-26000000Y-37000000D01*
X-26000000Y-37000000D02*
X-5000000Y-37000000D01*
X16000000Y-29400000D02*
X16000000Y-24847500D01*
X13475000Y-24900000D02*
X15947500Y-24900000D01*
X15947500Y-24900000D02*
X16000000Y-24847500D01*
X-16213600Y-8753500D02*
X-4483550Y-20483550D01*
X-23278240Y-9503500D02*
X-22604000Y-8829260D01*
X-28500000Y-9503500D02*
X-23278240Y-9503500D01*
X-22604000Y-8829260D02*
X-22604000Y-8753500D01*
X-22604000Y-8753500D02*
X-16213600Y-8753500D01*
X20750000Y-11000000D02*
X20750000Y-17250000D01*
X23500000Y-8250000D02*
X20750000Y-11000000D01*
X15640000Y-22360000D02*
X13475000Y-22360000D01*
X20750000Y-17250000D02*
X15640000Y-22360000D01*
X3500000Y-17500000D02*
X6098000Y-20098000D01*
X7170000Y-26170000D02*
X8525000Y-26170000D01*
X3000000Y-14900000D02*
X3500000Y-15400000D01*
X6098000Y-24582199D02*
X6099000Y-24583199D01*
X3500000Y-15400000D02*
X3500000Y-17500000D01*
X6100000Y-25100000D02*
X7170000Y-26170000D01*
X6099000Y-24726068D02*
X6100000Y-24727068D01*
X6100000Y-24727068D02*
X6100000Y-25100000D01*
X6099000Y-24583199D02*
X6099000Y-24726068D01*
X6098000Y-20098000D02*
X6098000Y-24582199D01*
X10380000Y-23630000D02*
X8525000Y-23630000D01*
X-32001000Y-34701000D02*
X-36574000Y-34701000D01*
X-36574000Y-34701000D02*
X-40275000Y-31000000D01*
X3925000Y-29675000D02*
X3925000Y-22075000D01*
X11250000Y-29000000D02*
X11250000Y-24500000D01*
X-13464600Y-8352500D02*
X-5007100Y-16810000D01*
X3925000Y-29675000D02*
X4750000Y-30500000D01*
X11250000Y-24500000D02*
X10380000Y-23630000D01*
X-345000Y-27745000D02*
X-625000Y-28025000D01*
X-345000Y-26055000D02*
X-345000Y-27745000D01*
X-25325000Y-28025000D02*
X-32001000Y-34701000D01*
X9750000Y-30500000D02*
X11250000Y-29000000D01*
X-5007100Y-16810000D02*
X-1400000Y-16810000D01*
X-23880000Y-8352500D02*
X-13464600Y-8352500D01*
X-600000Y-25800000D02*
X-345000Y-26055000D01*
X-2600000Y-25800000D02*
X-600000Y-25800000D01*
X-625000Y-28025000D02*
X-25325000Y-28025000D01*
X3925000Y-22075000D02*
X4000000Y-22000000D01*
X4750000Y-30500000D02*
X9750000Y-30500000D01*
X7550001Y-24900000D02*
X7200000Y-24549999D01*
X5975000Y-16125000D02*
X5605000Y-15755000D01*
X8525000Y-24900000D02*
X7550001Y-24900000D01*
X5605000Y-15755000D02*
X5200000Y-15755000D01*
X7200000Y-17350000D02*
X5975000Y-16125000D01*
X7200000Y-24549999D02*
X7200000Y-17350000D01*
X-31949000Y-36526760D02*
X-31949000Y-35249000D01*
X2900000Y-26701996D02*
X2900000Y-21600000D01*
X-25126000Y-28426000D02*
X1175996Y-28426000D01*
X-33301000Y-37201000D02*
X-32623240Y-37201000D01*
X2900000Y-21600000D02*
X1140000Y-19840000D01*
X-40275000Y-38500000D02*
X-39025000Y-37250000D01*
X-33350000Y-37250000D02*
X-33301000Y-37201000D01*
X-31949000Y-35249000D02*
X-25126000Y-28426000D01*
X1175996Y-28426000D02*
X2900000Y-26701996D01*
X1140000Y-19840000D02*
X1140000Y-19350000D01*
X-39025000Y-37250000D02*
X-33350000Y-37250000D01*
X-32623240Y-37201000D02*
X-31949000Y-36526760D01*
X6000000Y-14348530D02*
X6875735Y-15224265D01*
X7000000Y-16500000D02*
X8000000Y-17500000D01*
X6875735Y-15224265D02*
X7000000Y-15348530D01*
X-41551000Y4049000D02*
X-41551000Y-33976760D01*
X-39849000Y-34651000D02*
X-38450000Y-36050000D01*
X6000000Y-11000000D02*
X6000000Y-14348530D01*
X-41551000Y-33976760D02*
X-40876760Y-34651000D01*
X-40876760Y-34651000D02*
X-39849000Y-34651000D01*
X-38500000Y11600000D02*
X-38500000Y7100000D01*
X-345000Y7105000D02*
X2295000Y7105000D01*
X2295000Y7105000D02*
X8000000Y1400000D01*
X-38450000Y-36050000D02*
X-33225000Y-36050000D01*
X7000000Y-15348530D02*
X7000000Y-16500000D01*
X8000000Y1400000D02*
X8000000Y-9000000D01*
X-38500000Y7100000D02*
X-41551000Y4049000D01*
X8000000Y-9000000D02*
X6000000Y-11000000D01*
X-1400000Y6050000D02*
X-345000Y7105000D01*
X7750000Y-15250000D02*
X7000000Y-14500000D01*
X-345000Y9645000D02*
X-1400000Y8590000D01*
X2563840Y-38800000D02*
X11726752Y-29637088D01*
X-6160000Y8590000D02*
X-1400000Y8590000D01*
X7000000Y-12000000D02*
X9250000Y-9750000D01*
X1576996Y9645000D02*
X-345000Y9645000D01*
X7000000Y-14500000D02*
X7000000Y-12000000D01*
X-15750000Y-1000000D02*
X-6160000Y8590000D01*
X7750000Y-15250000D02*
X7902500Y-15402500D01*
X-32975000Y-38800000D02*
X2563840Y-38800000D01*
X-33225000Y-38550000D02*
X-32975000Y-38800000D01*
X11726752Y-23126752D02*
X11000000Y-22400000D01*
X9250000Y-9750000D02*
X9250000Y1971996D01*
X9250000Y1971996D02*
X1576996Y9645000D01*
X11726752Y-29637088D02*
X11726752Y-23126752D01*
X7902500Y-15402500D02*
X7902500Y-15750000D01*
D50*
X40963087Y-14300000D02*
X41167458Y-14300000D01*
X35471573Y-21500000D02*
X35028427Y-21500000D01*
X44400000Y-16332542D02*
X45506862Y-17439404D01*
X32205000Y-19505000D02*
X32205000Y-19500000D01*
X45599173Y-21733369D02*
X44400000Y-22932542D01*
X33614213Y-20914213D02*
X32205000Y-19505000D01*
X41104371Y-24900000D02*
X40900000Y-24900000D01*
X37700000Y-22900000D02*
X36885786Y-22085786D01*
X43100827Y-15100827D02*
X44300000Y-16300000D01*
X44367458Y-22900000D02*
X43260596Y-24006862D01*
X31500000Y-19200000D02*
X31500000Y-18600000D01*
X46400000Y-19595629D02*
X46400000Y-19800000D01*
X37700000Y-16300000D02*
X38806862Y-15193138D01*
X38966631Y-24099173D02*
X37767458Y-22900000D01*
X41167458Y-14300000D02*
G75*
G02*
X43100848Y-15100806I42J-2734200D01*
G01*
X33614213Y-20914213D02*
G75*
G03*
X35028427Y-21499981I1414187J1414213D01*
G01*
X46400000Y-19800000D02*
G75*
G02*
X45599173Y-21733369I-2734200J0D01*
G01*
X46400000Y-19595629D02*
G75*
G03*
X45506884Y-17439382I-3049400J29D01*
G01*
X40963087Y-14300000D02*
G75*
G03*
X38806861Y-15193137I13J-3049400D01*
G01*
X40900000Y-24900000D02*
G75*
G02*
X38966631Y-24099173I0J2734200D01*
G01*
X41104371Y-24900000D02*
G75*
G03*
X43260618Y-24006884I29J3049400D01*
G01*
X36885786Y-22085786D02*
G75*
G03*
X35471573Y-21500019I-1414186J-1414214D01*
G01*
D48*
X-4291996Y-38100000D02*
X-1836996Y-35645000D01*
X-27900000Y-36600000D02*
X-26400000Y-38100000D01*
X85000Y-35645000D02*
X1140000Y-34590000D01*
X-26400000Y-38100000D02*
X-4291996Y-38100000D01*
X-1836996Y-35645000D02*
X85000Y-35645000D01*
X710000Y-2000000D02*
X1140000Y-1570000D01*
X1140000Y-1570000D02*
X-290000Y-3000000D01*
X-16732500Y-3000000D02*
X-23880000Y4147500D01*
X-290000Y-3000000D02*
X-16732500Y-3000000D01*
X-2109000Y-3401000D02*
X-1400000Y-4110000D01*
X-24481760Y2798500D02*
X-23278240Y2798500D01*
X-23880000Y-3352500D02*
X-25156000Y-2076500D01*
X-17078740Y-3401000D02*
X-2109000Y-3401000D01*
X-23278240Y2798500D02*
X-17078740Y-3401000D01*
X-25156000Y2124260D02*
X-24481760Y2798500D01*
X-25156000Y-2076500D02*
X-25156000Y2124260D01*
X-1670000Y-26700000D02*
X-21200000Y-26700000D01*
X-1400000Y-26970000D02*
X-1670000Y-26700000D01*
X41000000Y-1750000D02*
X40156000Y-906000D01*
X-5965000Y7535000D02*
X85000Y7535000D01*
X85000Y7535000D02*
X1140000Y8590000D01*
X-15000000Y-1500000D02*
X-5965000Y7535000D01*
X27806000Y-906000D02*
X26500000Y400000D01*
X24155000Y4445000D02*
X15254600Y4445000D01*
X40156000Y-906000D02*
X27806000Y-906000D01*
X26500000Y400000D02*
X26500000Y2100000D01*
X41000000Y-8250000D02*
X41000000Y-1750000D01*
X15254600Y4445000D02*
X14399600Y5300000D01*
X26500000Y2100000D02*
X24155000Y4445000D01*
D49*
X-592500Y38707500D02*
X-592500Y34250000D01*
X14300000Y41900000D02*
X12200000Y44000000D01*
X14300000Y24250000D02*
X14300000Y34700000D01*
X18100000Y32000000D02*
X17000000Y32000000D01*
X4700000Y44000000D02*
X-592500Y38707500D01*
X14300000Y34700000D02*
X14300000Y41900000D01*
X12200000Y44000000D02*
X4700000Y44000000D01*
X17000000Y32000000D02*
X14300000Y34700000D01*
X7900000Y26275000D02*
X6375000Y24750000D01*
X657500Y24750000D02*
X-592500Y23500000D01*
X6375000Y24750000D02*
X657500Y24750000D01*
X7900000Y35525000D02*
X7900000Y26275000D01*
D48*
X6750000Y-8000000D02*
X6750000Y-4500000D01*
X-3300000Y-18300000D02*
X-4900000Y-18300000D01*
X-4900000Y-18300000D02*
X-9263809Y-13936191D01*
X-2555571Y-17507041D02*
X-2724265Y-17675735D01*
X-2724265Y-17675735D02*
X-2724265Y-17724265D01*
X-2724265Y-17724265D02*
X-3300000Y-18300000D01*
X-9263809Y-13936191D02*
X-9572050Y-13936191D01*
X-10724265Y-12375735D02*
X-10800000Y-12300000D01*
X-10124265Y-12375735D02*
X-10724265Y-12375735D01*
X-3500000Y-17410000D02*
X-5090000Y-17410000D01*
X-5090000Y-17410000D02*
X-10124265Y-12375735D01*
X18750000Y-6250000D02*
X18750000Y-13650000D01*
X23102500Y-1897500D02*
X18750000Y-6250000D01*
X13475000Y-18925000D02*
X13475000Y-19820000D01*
X18750000Y-13650000D02*
X13475000Y-18925000D01*
X23102500Y300000D02*
X23102500Y-1897500D01*
X30750000Y-29421573D02*
X30750000Y-26250000D01*
X25200000Y-32700000D02*
X26800000Y-31100000D01*
X26800000Y-31100000D02*
X29900000Y-31100000D01*
X29900000Y-31100000D02*
X30164214Y-30835786D01*
X30164214Y-30835786D02*
G75*
G03*
X30749981Y-29421573I-1414214J1414186D01*
G01*
X29665000Y-18415000D02*
X28500000Y-17250000D01*
X29665000Y-18800000D02*
X29665000Y-18415000D01*
X24114213Y-28164213D02*
X23150000Y-27200000D01*
X29665000Y-28585000D02*
X29500000Y-28750000D01*
X29665000Y-18800000D02*
X29665000Y-28585000D01*
X29500000Y-28750000D02*
X25528427Y-28750000D01*
X25528427Y-28750000D02*
G75*
G02*
X24114199Y-28164227I-27J2000000D01*
G01*
X11250000Y-20500000D02*
X9390000Y-22360000D01*
X11250000Y-15850000D02*
X11250000Y-20500000D01*
X9390000Y-22360000D02*
X8525000Y-22360000D01*
X11350000Y-15750000D02*
X11250000Y-15850000D01*
X8871968Y-27440000D02*
X8525000Y-27440000D01*
X6499000Y-19099000D02*
X6499000Y-24416099D01*
X5200000Y-17800000D02*
X6499000Y-19099000D01*
X1140000Y-16810000D02*
X560000Y-16810000D01*
X9801000Y-25829032D02*
X9801000Y-26510968D01*
X6500000Y-24559968D02*
X6501000Y-24560968D01*
X-5500000Y-15750000D02*
X-22897500Y1647500D01*
X7322566Y-25755466D02*
X7509032Y-25569000D01*
X-500000Y-15750000D02*
X-5500000Y-15750000D01*
X6500000Y-24417099D02*
X6500000Y-24559968D01*
X7509032Y-25569000D02*
X9540968Y-25569000D01*
X6501000Y-24933900D02*
X7322566Y-25755466D01*
X6499000Y-24416099D02*
X6500000Y-24417099D01*
X9540968Y-25569000D02*
X9801000Y-25829032D01*
X9801000Y-26510968D02*
X8871968Y-27440000D01*
X6501000Y-24560968D02*
X6501000Y-24933900D01*
X560000Y-16810000D02*
X-500000Y-15750000D01*
X-22897500Y1647500D02*
X-23880000Y1647500D01*
D50*
X30935000Y-13850000D02*
X29665000Y-13850000D01*
D48*
X33500000Y-7650000D02*
X38550000Y-2600000D01*
X33500000Y-8250000D02*
X33500000Y-7650000D01*
X-2200000Y19900000D02*
X-5430000Y16670000D01*
X-5430000Y10170000D02*
X-5600000Y10000000D01*
X-5430000Y16670000D02*
X-5430000Y10170000D01*
X19100000Y19900000D02*
X-2200000Y19900000D01*
X19700000Y19300000D02*
X19100000Y19900000D01*
G04 #@! TA.AperFunction,Conductor*
G36*
X35004418Y36999684D02*
G01*
X35275785Y36980275D01*
X35293297Y36977757D01*
X35554794Y36920872D01*
X35571770Y36915888D01*
X35822524Y36822361D01*
X35838617Y36815011D01*
X36073496Y36686758D01*
X36088380Y36677193D01*
X36302624Y36516811D01*
X36315994Y36505225D01*
X36505225Y36315994D01*
X36516811Y36302624D01*
X36677193Y36088380D01*
X36686758Y36073496D01*
X36815011Y35838617D01*
X36822361Y35822524D01*
X36915888Y35571770D01*
X36920872Y35554794D01*
X36977757Y35293297D01*
X36980275Y35275785D01*
X36999684Y35004418D01*
X37000000Y34995572D01*
X37000000Y25004427D01*
X36999684Y24995581D01*
X36980275Y24724214D01*
X36977757Y24706702D01*
X36920872Y24445205D01*
X36915888Y24428229D01*
X36822361Y24177475D01*
X36815011Y24161382D01*
X36686758Y23926503D01*
X36677193Y23911619D01*
X36516811Y23697375D01*
X36505225Y23684005D01*
X36315994Y23494774D01*
X36302625Y23483189D01*
X36088375Y23322802D01*
X36073501Y23313244D01*
X35838617Y23184988D01*
X35822524Y23177638D01*
X35571762Y23084108D01*
X35554803Y23079129D01*
X35293291Y23022241D01*
X35275790Y23019724D01*
X35017769Y23001270D01*
X35004418Y23000316D01*
X34995572Y23000000D01*
X30004428Y23000000D01*
X29995582Y23000316D01*
X29984180Y23001131D01*
X29724207Y23019724D01*
X29706710Y23022240D01*
X29445192Y23079130D01*
X29428241Y23084107D01*
X29177470Y23177640D01*
X29161388Y23184985D01*
X28926491Y23313248D01*
X28911630Y23322798D01*
X28697366Y23483195D01*
X28684012Y23494767D01*
X28494767Y23684012D01*
X28483195Y23697366D01*
X28322798Y23911630D01*
X28313248Y23926491D01*
X28184985Y24161388D01*
X28177638Y24177475D01*
X28084107Y24428241D01*
X28079130Y24445192D01*
X28022240Y24706710D01*
X28019724Y24724214D01*
X28000316Y24995581D01*
X28000000Y25004427D01*
X28000000Y34995572D01*
X28000316Y35004418D01*
X28019724Y35275785D01*
X28022242Y35293297D01*
X28079129Y35554803D01*
X28084108Y35571762D01*
X28177638Y35822524D01*
X28184988Y35838617D01*
X28313244Y36073501D01*
X28322802Y36088375D01*
X28483189Y36302625D01*
X28494774Y36315994D01*
X28684005Y36505225D01*
X28697375Y36516811D01*
X28911619Y36677193D01*
X28926503Y36686758D01*
X29161382Y36815011D01*
X29177475Y36822361D01*
X29428229Y36915888D01*
X29445205Y36920872D01*
X29706702Y36977757D01*
X29724214Y36980275D01*
X29995582Y36999684D01*
X30004428Y37000000D01*
X34995572Y37000000D01*
X35004418Y36999684D01*
G37*
G04 #@! TD.AperFunction*
G04 #@! TA.AperFunction,Conductor*
G36*
X31063012Y-12019685D02*
G01*
X31108767Y-12072489D01*
X31118711Y-12141647D01*
X31103360Y-12186000D01*
X31033609Y-12306810D01*
X31033609Y-12306811D01*
X30999500Y-12434108D01*
X30999500Y-12550500D01*
X30979815Y-12617539D01*
X30927011Y-12663294D01*
X30875500Y-12674500D01*
X30751739Y-12674500D01*
X30683608Y-12684426D01*
X30578514Y-12735803D01*
X30495803Y-12818514D01*
X30444426Y-12923608D01*
X30434500Y-12991739D01*
X30434500Y-13025500D01*
X30431949Y-13034185D01*
X30433238Y-13043147D01*
X30422259Y-13067187D01*
X30414815Y-13092539D01*
X30407974Y-13098466D01*
X30404213Y-13106703D01*
X30381978Y-13120992D01*
X30362011Y-13138294D01*
X30351496Y-13140581D01*
X30345435Y-13144477D01*
X30310500Y-13149500D01*
X30289500Y-13149500D01*
X30222461Y-13129815D01*
X30176706Y-13077011D01*
X30165500Y-13025500D01*
X30165500Y-12991739D01*
X30155573Y-12923608D01*
X30155573Y-12923607D01*
X30104198Y-12818517D01*
X30104196Y-12818515D01*
X30104196Y-12818514D01*
X30021485Y-12735803D01*
X29916391Y-12684426D01*
X29848261Y-12674500D01*
X29848260Y-12674500D01*
X29481740Y-12674500D01*
X29481739Y-12674500D01*
X29413608Y-12684426D01*
X29308514Y-12735803D01*
X29225803Y-12818514D01*
X29174426Y-12923608D01*
X29164500Y-12991739D01*
X29164500Y-13308481D01*
X29156803Y-13334692D01*
X29152513Y-13361670D01*
X29146292Y-13370487D01*
X29144815Y-13375520D01*
X29132991Y-13391073D01*
X29130654Y-13393689D01*
X29120886Y-13403458D01*
X29117778Y-13408109D01*
X29111991Y-13414590D01*
X29089397Y-13428637D01*
X29068983Y-13445697D01*
X29060185Y-13446801D01*
X29052656Y-13451483D01*
X29026053Y-13451086D01*
X28999657Y-13454400D01*
X28991659Y-13450573D01*
X28982794Y-13450441D01*
X28960626Y-13435722D01*
X28936632Y-13424241D01*
X28931973Y-13416699D01*
X28924586Y-13411794D01*
X28913896Y-13387430D01*
X28899916Y-13364796D01*
X28898123Y-13351482D01*
X28896513Y-13347812D01*
X28897117Y-13344011D01*
X28895500Y-13331998D01*
X28895500Y-12991739D01*
X28885573Y-12923608D01*
X28885573Y-12923607D01*
X28834198Y-12818517D01*
X28834196Y-12818515D01*
X28834196Y-12818514D01*
X28751485Y-12735803D01*
X28646391Y-12684426D01*
X28578261Y-12674500D01*
X28578260Y-12674500D01*
X28211740Y-12674500D01*
X28211739Y-12674500D01*
X28143608Y-12684426D01*
X28038514Y-12735803D01*
X27955803Y-12818514D01*
X27904426Y-12923608D01*
X27894500Y-12991739D01*
X27894500Y-14456324D01*
X27874815Y-14523363D01*
X27858181Y-14544005D01*
X27849502Y-14552683D01*
X27849500Y-14552686D01*
X27783608Y-14666812D01*
X27772482Y-14708336D01*
X27749500Y-14794108D01*
X27749500Y-14925892D01*
X27759764Y-14964198D01*
X27783608Y-15053187D01*
X27816554Y-15110250D01*
X27849500Y-15167314D01*
X27942686Y-15260500D01*
X28056814Y-15326392D01*
X28184108Y-15360500D01*
X28184110Y-15360500D01*
X28315890Y-15360500D01*
X28315892Y-15360500D01*
X28443186Y-15326392D01*
X28557314Y-15260500D01*
X28650500Y-15167314D01*
X28716392Y-15053186D01*
X28727519Y-15011655D01*
X28759612Y-14956068D01*
X28834198Y-14881483D01*
X28885573Y-14776393D01*
X28895500Y-14708260D01*
X28895500Y-14368001D01*
X28902693Y-14343502D01*
X28905950Y-14318178D01*
X28912373Y-14310537D01*
X28915185Y-14300962D01*
X28934478Y-14284243D01*
X28950912Y-14264697D01*
X28960447Y-14261742D01*
X28967989Y-14255207D01*
X28993260Y-14251573D01*
X29017650Y-14244015D01*
X29027267Y-14246683D01*
X29037147Y-14245263D01*
X29060373Y-14255870D01*
X29084976Y-14262697D01*
X29093600Y-14271044D01*
X29100703Y-14274288D01*
X29111991Y-14285409D01*
X29117775Y-14291886D01*
X29120886Y-14296542D01*
X29130663Y-14306319D01*
X29132991Y-14308926D01*
X29146535Y-14337450D01*
X29161665Y-14365155D01*
X29162243Y-14370529D01*
X29162961Y-14372042D01*
X29162658Y-14374394D01*
X29164500Y-14391518D01*
X29164500Y-14708260D01*
X29174426Y-14776391D01*
X29225803Y-14881485D01*
X29308514Y-14964196D01*
X29308515Y-14964196D01*
X29308517Y-14964198D01*
X29413607Y-15015573D01*
X29435419Y-15018751D01*
X29481739Y-15025500D01*
X29481740Y-15025500D01*
X29848261Y-15025500D01*
X29870971Y-15022191D01*
X29916393Y-15015573D01*
X30021483Y-14964198D01*
X30104198Y-14881483D01*
X30155573Y-14776393D01*
X30165500Y-14708260D01*
X30165500Y-14674500D01*
X30168050Y-14665814D01*
X30166762Y-14656853D01*
X30177740Y-14632812D01*
X30185185Y-14607461D01*
X30192025Y-14601533D01*
X30195787Y-14593297D01*
X30218021Y-14579007D01*
X30237989Y-14561706D01*
X30248503Y-14559418D01*
X30254565Y-14555523D01*
X30289500Y-14550500D01*
X30310500Y-14550500D01*
X30377539Y-14570185D01*
X30423294Y-14622989D01*
X30434500Y-14674500D01*
X30434500Y-14708260D01*
X30444426Y-14776391D01*
X30495803Y-14881485D01*
X30578514Y-14964196D01*
X30578515Y-14964196D01*
X30578517Y-14964198D01*
X30683607Y-15015573D01*
X30705419Y-15018751D01*
X30751739Y-15025500D01*
X30751740Y-15025500D01*
X31118261Y-15025500D01*
X31140971Y-15022191D01*
X31186393Y-15015573D01*
X31291483Y-14964198D01*
X31374198Y-14881483D01*
X31425573Y-14776393D01*
X31435500Y-14708260D01*
X31435500Y-14391518D01*
X31443196Y-14365306D01*
X31447487Y-14338329D01*
X31453707Y-14329512D01*
X31455185Y-14324479D01*
X31467009Y-14308926D01*
X31469336Y-14306319D01*
X31479114Y-14296542D01*
X31482224Y-14291886D01*
X31488009Y-14285409D01*
X31510591Y-14271367D01*
X31530996Y-14254311D01*
X31539805Y-14253203D01*
X31547344Y-14248516D01*
X31573933Y-14248912D01*
X31600320Y-14245595D01*
X31608328Y-14249425D01*
X31617206Y-14249558D01*
X31639361Y-14264268D01*
X31663351Y-14275742D01*
X31668017Y-14283294D01*
X31675414Y-14288205D01*
X31686098Y-14312557D01*
X31700078Y-14335181D01*
X31701873Y-14348510D01*
X31703487Y-14352187D01*
X31702881Y-14355991D01*
X31704500Y-14368001D01*
X31704500Y-14708260D01*
X31714426Y-14776391D01*
X31765803Y-14881485D01*
X31848514Y-14964196D01*
X31848515Y-14964196D01*
X31848517Y-14964198D01*
X31953607Y-15015573D01*
X31975419Y-15018751D01*
X32021739Y-15025500D01*
X32021740Y-15025500D01*
X32388261Y-15025500D01*
X32410971Y-15022191D01*
X32456393Y-15015573D01*
X32561483Y-14964198D01*
X32644198Y-14881483D01*
X32695573Y-14776393D01*
X32705500Y-14708260D01*
X32705500Y-12991740D01*
X32695573Y-12923607D01*
X32644198Y-12818517D01*
X32644196Y-12818515D01*
X32644196Y-12818514D01*
X32561485Y-12735803D01*
X32456391Y-12684426D01*
X32388261Y-12674500D01*
X32388260Y-12674500D01*
X32150833Y-12674500D01*
X32121392Y-12665855D01*
X32091406Y-12659332D01*
X32086390Y-12655577D01*
X32083794Y-12654815D01*
X32063152Y-12638181D01*
X32036819Y-12611848D01*
X32003334Y-12550525D01*
X32000500Y-12524167D01*
X32000500Y-12434110D01*
X32000500Y-12434108D01*
X31966392Y-12306814D01*
X31900500Y-12192686D01*
X31896640Y-12186000D01*
X31880167Y-12118100D01*
X31903019Y-12052073D01*
X31957940Y-12008883D01*
X32004027Y-12000000D01*
X50375500Y-12000000D01*
X50442539Y-12019685D01*
X50488294Y-12072489D01*
X50499500Y-12124000D01*
X50499500Y-34576000D01*
X50479815Y-34643039D01*
X50427011Y-34688794D01*
X50375500Y-34700000D01*
X22223455Y-34700000D01*
X22156416Y-34680315D01*
X22110661Y-34627511D01*
X22099456Y-34576546D01*
X22093394Y-33200499D01*
X22090899Y-32634108D01*
X24699500Y-32634108D01*
X24699500Y-32765891D01*
X24733608Y-32893187D01*
X24766554Y-32950250D01*
X24799500Y-33007314D01*
X24892686Y-33100500D01*
X25006814Y-33166392D01*
X25134108Y-33200500D01*
X25134110Y-33200500D01*
X25265890Y-33200500D01*
X25265892Y-33200500D01*
X25393186Y-33166392D01*
X25507314Y-33100500D01*
X25600500Y-33007314D01*
X25666392Y-32893186D01*
X25700500Y-32765892D01*
X25700500Y-32675832D01*
X25720185Y-32608793D01*
X25736819Y-32588151D01*
X26888152Y-31436819D01*
X26949475Y-31403334D01*
X26975833Y-31400500D01*
X29939560Y-31400500D01*
X29939562Y-31400500D01*
X30015989Y-31380021D01*
X30084511Y-31340460D01*
X30140460Y-31284511D01*
X30339429Y-31085540D01*
X30339492Y-31085506D01*
X30376714Y-31048282D01*
X30376715Y-31048283D01*
X30468068Y-30956928D01*
X30629168Y-30754911D01*
X30766637Y-30536126D01*
X30878744Y-30303326D01*
X30896505Y-30252563D01*
X30898587Y-30247893D01*
X30918033Y-30225028D01*
X30935528Y-30200635D01*
X30940433Y-30198690D01*
X30943853Y-30194670D01*
X30972574Y-30185948D01*
X31000480Y-30174885D01*
X31005658Y-30175901D01*
X31010708Y-30174368D01*
X31031401Y-30180237D01*
X31082209Y-30184237D01*
X31660000Y-29606446D01*
X31660000Y-29621344D01*
X31686578Y-29720534D01*
X31737923Y-29809465D01*
X31810535Y-29882077D01*
X31899466Y-29933422D01*
X31998656Y-29960000D01*
X32013554Y-29960000D01*
X31435762Y-30537790D01*
X31435762Y-30537791D01*
X31450411Y-30548434D01*
X31610856Y-30630186D01*
X31610859Y-30630187D01*
X31782110Y-30685829D01*
X31959966Y-30714000D01*
X32140034Y-30714000D01*
X32317888Y-30685829D01*
X32317891Y-30685829D01*
X32489140Y-30630187D01*
X32489143Y-30630186D01*
X32649586Y-30548435D01*
X32664236Y-30537791D01*
X32664236Y-30537790D01*
X32086447Y-29960000D01*
X32101344Y-29960000D01*
X32200534Y-29933422D01*
X32289465Y-29882077D01*
X32362077Y-29809465D01*
X32413422Y-29720534D01*
X32440000Y-29621344D01*
X32440000Y-29606446D01*
X33017790Y-30184236D01*
X33017791Y-30184236D01*
X33028435Y-30169586D01*
X33110186Y-30009143D01*
X33110187Y-30009140D01*
X33165829Y-29837891D01*
X33165829Y-29837888D01*
X33194000Y-29660033D01*
X33194000Y-29479966D01*
X33165829Y-29302111D01*
X33165829Y-29302108D01*
X33110187Y-29130859D01*
X33110186Y-29130856D01*
X33028434Y-28970411D01*
X33017790Y-28955762D01*
X32440000Y-29533552D01*
X32440000Y-29518656D01*
X32413422Y-29419466D01*
X32362077Y-29330535D01*
X32289465Y-29257923D01*
X32200534Y-29206578D01*
X32101344Y-29180000D01*
X32086447Y-29180000D01*
X32664237Y-28602209D01*
X32664236Y-28602208D01*
X32649588Y-28591565D01*
X32489143Y-28509813D01*
X32489140Y-28509812D01*
X32317889Y-28454170D01*
X32140034Y-28426000D01*
X31959966Y-28426000D01*
X31782111Y-28454170D01*
X31782108Y-28454170D01*
X31610859Y-28509812D01*
X31610856Y-28509813D01*
X31450410Y-28591565D01*
X31450408Y-28591566D01*
X31435762Y-28602206D01*
X31435762Y-28602208D01*
X32013554Y-29180000D01*
X31998656Y-29180000D01*
X31899466Y-29206578D01*
X31810535Y-29257923D01*
X31737923Y-29330535D01*
X31686578Y-29419466D01*
X31660000Y-29518656D01*
X31660000Y-29533554D01*
X31086819Y-28960373D01*
X31072115Y-28933445D01*
X31055523Y-28907627D01*
X31054631Y-28901426D01*
X31053334Y-28899050D01*
X31050500Y-28872692D01*
X31050500Y-26708676D01*
X31070185Y-26641637D01*
X31086819Y-26620995D01*
X31150500Y-26557314D01*
X31216392Y-26443186D01*
X31250500Y-26315892D01*
X31250500Y-26184108D01*
X31216392Y-26056814D01*
X31150500Y-25942686D01*
X31057314Y-25849500D01*
X30971576Y-25799999D01*
X30943187Y-25783608D01*
X30832395Y-25753922D01*
X30815892Y-25749500D01*
X30684108Y-25749500D01*
X30556812Y-25783608D01*
X30442686Y-25849500D01*
X30442683Y-25849502D01*
X30349502Y-25942683D01*
X30349500Y-25942686D01*
X30283608Y-26056812D01*
X30249500Y-26184108D01*
X30249500Y-26315891D01*
X30283608Y-26443187D01*
X30293077Y-26459587D01*
X30349500Y-26557314D01*
X30349502Y-26557316D01*
X30413181Y-26620995D01*
X30446666Y-26682318D01*
X30449500Y-26708676D01*
X30449500Y-29373978D01*
X30449499Y-29373982D01*
X30449499Y-29386941D01*
X30449499Y-29394638D01*
X30449499Y-29417512D01*
X30449234Y-29425620D01*
X30435494Y-29635297D01*
X30433377Y-29651378D01*
X30393181Y-29853472D01*
X30388983Y-29869140D01*
X30322752Y-30064257D01*
X30316545Y-30079242D01*
X30225415Y-30264041D01*
X30217305Y-30278088D01*
X30102829Y-30449418D01*
X30092955Y-30462287D01*
X29954604Y-30620048D01*
X29949056Y-30625971D01*
X29811846Y-30763182D01*
X29750526Y-30796666D01*
X29724167Y-30799500D01*
X26760438Y-30799500D01*
X26684010Y-30819978D01*
X26615489Y-30859540D01*
X26615486Y-30859542D01*
X25311847Y-32163181D01*
X25250524Y-32196666D01*
X25224166Y-32199500D01*
X25134108Y-32199500D01*
X25006812Y-32233608D01*
X24892686Y-32299500D01*
X24892683Y-32299502D01*
X24799502Y-32392683D01*
X24799500Y-32392686D01*
X24733608Y-32506812D01*
X24699500Y-32634108D01*
X22090899Y-32634108D01*
X22086302Y-31590723D01*
X22105691Y-31523601D01*
X22158293Y-31477614D01*
X22178205Y-31470405D01*
X22193186Y-31466392D01*
X22307314Y-31400500D01*
X22400500Y-31307314D01*
X22466392Y-31193186D01*
X22500500Y-31065892D01*
X22500500Y-30934108D01*
X22466392Y-30806814D01*
X22400500Y-30692686D01*
X22307314Y-30599500D01*
X22250250Y-30566554D01*
X22193187Y-30533608D01*
X22172997Y-30528198D01*
X22113338Y-30491831D01*
X22082811Y-30428983D01*
X22081096Y-30408979D01*
X22066597Y-27117710D01*
X22314500Y-27117710D01*
X22314500Y-27282290D01*
X22315342Y-27286528D01*
X22315343Y-27286532D01*
X22346605Y-27443698D01*
X22346607Y-27443706D01*
X22409587Y-27595755D01*
X22409592Y-27595764D01*
X22501023Y-27732599D01*
X22501026Y-27732603D01*
X22617396Y-27848973D01*
X22617400Y-27848976D01*
X22754235Y-27940407D01*
X22754244Y-27940412D01*
X22781556Y-27951725D01*
X22906294Y-28003393D01*
X23067705Y-28035499D01*
X23067709Y-28035500D01*
X23067710Y-28035500D01*
X23232291Y-28035500D01*
X23232292Y-28035499D01*
X23393706Y-28003393D01*
X23412416Y-27995642D01*
X23481885Y-27988173D01*
X23544364Y-28019447D01*
X23547551Y-28022522D01*
X23864075Y-28339046D01*
X23865430Y-28340402D01*
X23865462Y-28340461D01*
X23901716Y-28376713D01*
X23901716Y-28376714D01*
X23993071Y-28468067D01*
X24195088Y-28629168D01*
X24413873Y-28766636D01*
X24646674Y-28878744D01*
X24890563Y-28964081D01*
X25142473Y-29021575D01*
X25399237Y-29050502D01*
X25528431Y-29050500D01*
X25576026Y-29050500D01*
X29041324Y-29050500D01*
X29108363Y-29070185D01*
X29129005Y-29086819D01*
X29192686Y-29150500D01*
X29306814Y-29216392D01*
X29434108Y-29250500D01*
X29434110Y-29250500D01*
X29565890Y-29250500D01*
X29565892Y-29250500D01*
X29693186Y-29216392D01*
X29807314Y-29150500D01*
X29900500Y-29057314D01*
X29966392Y-28943186D01*
X30000500Y-28815892D01*
X30000500Y-28684108D01*
X29969724Y-28569252D01*
X29965500Y-28537161D01*
X29965500Y-24573178D01*
X31205499Y-24573178D01*
X31237952Y-24736326D01*
X31237955Y-24736336D01*
X31301610Y-24890014D01*
X31301617Y-24890027D01*
X31394033Y-25028336D01*
X31394036Y-25028340D01*
X31511657Y-25145961D01*
X31511663Y-25145966D01*
X31649972Y-25238382D01*
X31649985Y-25238389D01*
X31803663Y-25302044D01*
X31803668Y-25302046D01*
X31803672Y-25302046D01*
X31803673Y-25302047D01*
X31966821Y-25334500D01*
X31966824Y-25334500D01*
X32133178Y-25334500D01*
X32242942Y-25312665D01*
X32296332Y-25302046D01*
X32450021Y-25238386D01*
X32588337Y-25145966D01*
X32588339Y-25145963D01*
X32588343Y-25145961D01*
X32705963Y-25028340D01*
X32705966Y-25028337D01*
X32798386Y-24890021D01*
X32862046Y-24736332D01*
X32889065Y-24600500D01*
X32894500Y-24573178D01*
X32894500Y-24406821D01*
X32862047Y-24243673D01*
X32862046Y-24243672D01*
X32862046Y-24243668D01*
X32838616Y-24187103D01*
X32798389Y-24089985D01*
X32798382Y-24089972D01*
X32705966Y-23951663D01*
X32705963Y-23951659D01*
X32588340Y-23834036D01*
X32588336Y-23834033D01*
X32450027Y-23741617D01*
X32450014Y-23741610D01*
X32296336Y-23677955D01*
X32296326Y-23677952D01*
X32133178Y-23645500D01*
X32133176Y-23645500D01*
X31966824Y-23645500D01*
X31966822Y-23645500D01*
X31803673Y-23677952D01*
X31803663Y-23677955D01*
X31649985Y-23741610D01*
X31649972Y-23741617D01*
X31511663Y-23834033D01*
X31511659Y-23834036D01*
X31394036Y-23951659D01*
X31394033Y-23951663D01*
X31301617Y-24089972D01*
X31301610Y-24089985D01*
X31237955Y-24243663D01*
X31237952Y-24243673D01*
X31205500Y-24406821D01*
X31205500Y-24406824D01*
X31205500Y-24573176D01*
X31205500Y-24573178D01*
X31205499Y-24573178D01*
X29965500Y-24573178D01*
X29965500Y-20017997D01*
X29985185Y-19950958D01*
X30017450Y-19917077D01*
X30021477Y-19914200D01*
X30021483Y-19914198D01*
X30104198Y-19831483D01*
X30155573Y-19726393D01*
X30165500Y-19658260D01*
X30165500Y-17941740D01*
X30165500Y-17941739D01*
X30434500Y-17941739D01*
X30434500Y-19658260D01*
X30444426Y-19726391D01*
X30495803Y-19831485D01*
X30578514Y-19914196D01*
X30578515Y-19914196D01*
X30578517Y-19914198D01*
X30683607Y-19965573D01*
X30705316Y-19968736D01*
X30751739Y-19975500D01*
X30751740Y-19975500D01*
X31118261Y-19975500D01*
X31141932Y-19972051D01*
X31186393Y-19965573D01*
X31291483Y-19914198D01*
X31291490Y-19914190D01*
X31293241Y-19912942D01*
X31296044Y-19911967D01*
X31300714Y-19909685D01*
X31300989Y-19910249D01*
X31359239Y-19890006D01*
X31372047Y-19890042D01*
X31380845Y-19890521D01*
X31431007Y-19900500D01*
X31563875Y-19900500D01*
X31567250Y-19900684D01*
X31597130Y-19911256D01*
X31627539Y-19920185D01*
X31630452Y-19923045D01*
X31633119Y-19923989D01*
X31638561Y-19931008D01*
X31655745Y-19947882D01*
X31657022Y-19946835D01*
X31660888Y-19951546D01*
X33063079Y-21353736D01*
X33082557Y-21373214D01*
X33082589Y-21373273D01*
X33226115Y-21516796D01*
X33290218Y-21567916D01*
X33463258Y-21705908D01*
X33720084Y-21867279D01*
X33993363Y-21998880D01*
X33993366Y-21998881D01*
X33993368Y-21998882D01*
X34055668Y-22020680D01*
X34279659Y-22099055D01*
X34279668Y-22099057D01*
X34575353Y-22166542D01*
X34575363Y-22166543D01*
X34575370Y-22166545D01*
X34876779Y-22200502D01*
X35028436Y-22200500D01*
X35392651Y-22200500D01*
X35392655Y-22200501D01*
X35466711Y-22200500D01*
X35476436Y-22200881D01*
X35665148Y-22215731D01*
X35684355Y-22218773D01*
X35863664Y-22261819D01*
X35882164Y-22267829D01*
X35985782Y-22310747D01*
X36040185Y-22354588D01*
X36062251Y-22420881D01*
X36058105Y-22457401D01*
X36028599Y-22567522D01*
X36028595Y-22567540D01*
X35999501Y-22788533D01*
X35999500Y-22788549D01*
X35999500Y-23011450D01*
X35999501Y-23011466D01*
X36028594Y-23232452D01*
X36028595Y-23232457D01*
X36028596Y-23232463D01*
X36073621Y-23400499D01*
X36086290Y-23447780D01*
X36086293Y-23447790D01*
X36171593Y-23653722D01*
X36171595Y-23653726D01*
X36283052Y-23846774D01*
X36283057Y-23846780D01*
X36283058Y-23846782D01*
X36418751Y-24023622D01*
X36418757Y-24023629D01*
X36576370Y-24181242D01*
X36576377Y-24181248D01*
X36657725Y-24243668D01*
X36753226Y-24316948D01*
X36946274Y-24428405D01*
X37051293Y-24471905D01*
X37127842Y-24503613D01*
X37152219Y-24513710D01*
X37367537Y-24571404D01*
X37588543Y-24600500D01*
X37588550Y-24600500D01*
X37811450Y-24600500D01*
X37811457Y-24600500D01*
X38032463Y-24571404D01*
X38247781Y-24513710D01*
X38272158Y-24503612D01*
X38292032Y-24501474D01*
X38310765Y-24494488D01*
X38326058Y-24497814D01*
X38341622Y-24496141D01*
X38359502Y-24505090D01*
X38379038Y-24509340D01*
X38401318Y-24526019D01*
X38404103Y-24527413D01*
X38407292Y-24530491D01*
X38444990Y-24568189D01*
X38471303Y-24594502D01*
X38541801Y-24665000D01*
X38590617Y-24713816D01*
X38851481Y-24927902D01*
X39132070Y-25115385D01*
X39132076Y-25115388D01*
X39132084Y-25115394D01*
X39132088Y-25115396D01*
X39429699Y-25274473D01*
X39429701Y-25274473D01*
X39429707Y-25274477D01*
X39741490Y-25403622D01*
X40064431Y-25501584D01*
X40395418Y-25567422D01*
X40731264Y-25600500D01*
X40731267Y-25600500D01*
X41179245Y-25600500D01*
X41179881Y-25600468D01*
X41268086Y-25600469D01*
X41594283Y-25571934D01*
X41889233Y-25519930D01*
X41916730Y-25515082D01*
X41916731Y-25515081D01*
X41916752Y-25515078D01*
X42172902Y-25446446D01*
X42233029Y-25430336D01*
X42233034Y-25430334D01*
X42233039Y-25430333D01*
X42233044Y-25430331D01*
X42233057Y-25430327D01*
X42417657Y-25363139D01*
X42540736Y-25318344D01*
X42837502Y-25179965D01*
X43121078Y-25016247D01*
X43389307Y-24828437D01*
X43640146Y-24617964D01*
X43695432Y-24562679D01*
X43756754Y-24529195D01*
X43815200Y-24530585D01*
X43967537Y-24571404D01*
X44188543Y-24600500D01*
X44188550Y-24600500D01*
X44411450Y-24600500D01*
X44411457Y-24600500D01*
X44632463Y-24571404D01*
X44847781Y-24513710D01*
X45053726Y-24428405D01*
X45246774Y-24316948D01*
X45423624Y-24181247D01*
X45581247Y-24023624D01*
X45716948Y-23846774D01*
X45828405Y-23653726D01*
X45913710Y-23447781D01*
X45971404Y-23232463D01*
X46000500Y-23011457D01*
X46000500Y-22788543D01*
X45971404Y-22567537D01*
X45944341Y-22466536D01*
X45944626Y-22454536D01*
X45940432Y-22443290D01*
X45945442Y-22420255D01*
X45946004Y-22396687D01*
X45953103Y-22385039D01*
X45955284Y-22375017D01*
X45976431Y-22346766D01*
X46143287Y-22179912D01*
X46213816Y-22109383D01*
X46427906Y-21848513D01*
X46615394Y-21567916D01*
X46774477Y-21270293D01*
X46903622Y-20958510D01*
X47001584Y-20635569D01*
X47067422Y-20304582D01*
X47100500Y-19968736D01*
X47100500Y-19800000D01*
X47100500Y-19721073D01*
X47100500Y-19526636D01*
X47100500Y-19520795D01*
X47100468Y-19520152D01*
X47100469Y-19431914D01*
X47071934Y-19105717D01*
X47039895Y-18924000D01*
X47015082Y-18783269D01*
X47015080Y-18783264D01*
X47015078Y-18783248D01*
X46952582Y-18550000D01*
X46930336Y-18466970D01*
X46930327Y-18466942D01*
X46818348Y-18159275D01*
X46818346Y-18159270D01*
X46818344Y-18159264D01*
X46679965Y-17862498D01*
X46516247Y-17578922D01*
X46512413Y-17573447D01*
X46494898Y-17548432D01*
X46328437Y-17310693D01*
X46117964Y-17059854D01*
X46055319Y-16997206D01*
X46055319Y-16997205D01*
X46050978Y-16992864D01*
X46050976Y-16992861D01*
X45962679Y-16904564D01*
X45929196Y-16843244D01*
X45930586Y-16784795D01*
X45971404Y-16632463D01*
X46000500Y-16411457D01*
X46000500Y-16188543D01*
X45971404Y-15967537D01*
X45913710Y-15752219D01*
X45828405Y-15546274D01*
X45716948Y-15353226D01*
X45645797Y-15260500D01*
X45581248Y-15176377D01*
X45581242Y-15176370D01*
X45423629Y-15018757D01*
X45423622Y-15018751D01*
X45246782Y-14883058D01*
X45246780Y-14883057D01*
X45246774Y-14883052D01*
X45053726Y-14771595D01*
X45053722Y-14771593D01*
X44847790Y-14686293D01*
X44847783Y-14686291D01*
X44847781Y-14686290D01*
X44632463Y-14628596D01*
X44632457Y-14628595D01*
X44632452Y-14628594D01*
X44411466Y-14599501D01*
X44411463Y-14599500D01*
X44411457Y-14599500D01*
X44188543Y-14599500D01*
X44188537Y-14599500D01*
X44188533Y-14599501D01*
X43967547Y-14628594D01*
X43967540Y-14628595D01*
X43967537Y-14628596D01*
X43762004Y-14683667D01*
X43750004Y-14683382D01*
X43738758Y-14687577D01*
X43715723Y-14682566D01*
X43692155Y-14682005D01*
X43680507Y-14674905D01*
X43670485Y-14672725D01*
X43642231Y-14651574D01*
X43633087Y-14642430D01*
X43633034Y-14642333D01*
X43596171Y-14605471D01*
X43476854Y-14486158D01*
X43361532Y-14391518D01*
X43215980Y-14272070D01*
X43215970Y-14272063D01*
X42935389Y-14084590D01*
X42935388Y-14084589D01*
X42935380Y-14084584D01*
X42814608Y-14020032D01*
X42637754Y-13925504D01*
X42325975Y-13796366D01*
X42325968Y-13796363D01*
X42003029Y-13698405D01*
X41672030Y-13632570D01*
X41435400Y-13609268D01*
X41336184Y-13599498D01*
X41336181Y-13599498D01*
X41167447Y-13599500D01*
X40889009Y-13599500D01*
X40888935Y-13599503D01*
X40799360Y-13599503D01*
X40799359Y-13599504D01*
X40473160Y-13628044D01*
X40150700Y-13684903D01*
X40150693Y-13684904D01*
X39981195Y-13730321D01*
X39834409Y-13769653D01*
X39834406Y-13769654D01*
X39834405Y-13769654D01*
X39526698Y-13881651D01*
X39229964Y-14020020D01*
X39229940Y-14020032D01*
X38946380Y-14183746D01*
X38946354Y-14183762D01*
X38678140Y-14371567D01*
X38678139Y-14371568D01*
X38427302Y-14582042D01*
X38363444Y-14645899D01*
X38363423Y-14645920D01*
X38363415Y-14645926D01*
X38363416Y-14645927D01*
X38357752Y-14651589D01*
X38357749Y-14651590D01*
X38357744Y-14651596D01*
X38333409Y-14664875D01*
X38296423Y-14685063D01*
X38296415Y-14685062D01*
X38296412Y-14685065D01*
X38296364Y-14685061D01*
X38237993Y-14683667D01*
X38137920Y-14656853D01*
X38032463Y-14628596D01*
X38032457Y-14628595D01*
X38032452Y-14628594D01*
X37811466Y-14599501D01*
X37811463Y-14599500D01*
X37811457Y-14599500D01*
X37588543Y-14599500D01*
X37588537Y-14599500D01*
X37588533Y-14599501D01*
X37367547Y-14628594D01*
X37367540Y-14628595D01*
X37367537Y-14628596D01*
X37156806Y-14685061D01*
X37152219Y-14686290D01*
X37152209Y-14686293D01*
X36946277Y-14771593D01*
X36946273Y-14771595D01*
X36753226Y-14883052D01*
X36753217Y-14883058D01*
X36576377Y-15018751D01*
X36576370Y-15018757D01*
X36418757Y-15176370D01*
X36418751Y-15176377D01*
X36283058Y-15353217D01*
X36283052Y-15353226D01*
X36171595Y-15546273D01*
X36171593Y-15546277D01*
X36086293Y-15752209D01*
X36086290Y-15752219D01*
X36028597Y-15967534D01*
X36028594Y-15967547D01*
X35999501Y-16188533D01*
X35999500Y-16188549D01*
X35999500Y-16411450D01*
X35999501Y-16411466D01*
X36028594Y-16632452D01*
X36028595Y-16632457D01*
X36028596Y-16632463D01*
X36086290Y-16847780D01*
X36086293Y-16847790D01*
X36171593Y-17053722D01*
X36171595Y-17053726D01*
X36283052Y-17246774D01*
X36283057Y-17246780D01*
X36283058Y-17246782D01*
X36418751Y-17423622D01*
X36418757Y-17423629D01*
X36576370Y-17581242D01*
X36576377Y-17581248D01*
X36645682Y-17634427D01*
X36753226Y-17716948D01*
X36946274Y-17828405D01*
X37061589Y-17876170D01*
X37136695Y-17907280D01*
X37152219Y-17913710D01*
X37367537Y-17971404D01*
X37588543Y-18000500D01*
X37588550Y-18000500D01*
X37811450Y-18000500D01*
X37811457Y-18000500D01*
X38032463Y-17971404D01*
X38247781Y-17913710D01*
X38453726Y-17828405D01*
X38646774Y-17716948D01*
X38823624Y-17581247D01*
X38981247Y-17423624D01*
X39116948Y-17246774D01*
X39228405Y-17053726D01*
X39313710Y-16847781D01*
X39371404Y-16632463D01*
X39400500Y-16411457D01*
X39400500Y-16188543D01*
X39371404Y-15967537D01*
X39317451Y-15766181D01*
X39317818Y-15750741D01*
X39313240Y-15735987D01*
X39318633Y-15716523D01*
X39319114Y-15696335D01*
X39328040Y-15682573D01*
X39331898Y-15668654D01*
X39354596Y-15641635D01*
X39493402Y-15517592D01*
X39504266Y-15508927D01*
X39707750Y-15364549D01*
X39719497Y-15357168D01*
X39937875Y-15236476D01*
X39950375Y-15230456D01*
X40180880Y-15134977D01*
X40193992Y-15130389D01*
X40433737Y-15061320D01*
X40447273Y-15058231D01*
X40693244Y-15016437D01*
X40707042Y-15014883D01*
X40959678Y-15000694D01*
X40966617Y-15000500D01*
X41088537Y-15000500D01*
X41088541Y-15000501D01*
X41163991Y-15000500D01*
X41170941Y-15000695D01*
X41191019Y-15001822D01*
X41388232Y-15012894D01*
X41402027Y-15014448D01*
X41613150Y-15050317D01*
X41626698Y-15053409D01*
X41832472Y-15112687D01*
X41845587Y-15117276D01*
X42043445Y-15199228D01*
X42055954Y-15205253D01*
X42155919Y-15260500D01*
X42243370Y-15308831D01*
X42255142Y-15316227D01*
X42429800Y-15440149D01*
X42440665Y-15448815D01*
X42602535Y-15593468D01*
X42607590Y-15598247D01*
X42651574Y-15642231D01*
X42685059Y-15703554D01*
X42683668Y-15762005D01*
X42628597Y-15967534D01*
X42628594Y-15967547D01*
X42599501Y-16188533D01*
X42599500Y-16188549D01*
X42599500Y-16411450D01*
X42599501Y-16411466D01*
X42628594Y-16632452D01*
X42628595Y-16632457D01*
X42628596Y-16632463D01*
X42686290Y-16847780D01*
X42686293Y-16847790D01*
X42771593Y-17053722D01*
X42771595Y-17053726D01*
X42883052Y-17246774D01*
X42883057Y-17246780D01*
X42883058Y-17246782D01*
X43018751Y-17423622D01*
X43018757Y-17423629D01*
X43176370Y-17581242D01*
X43176377Y-17581248D01*
X43245682Y-17634427D01*
X43353226Y-17716948D01*
X43546274Y-17828405D01*
X43661589Y-17876170D01*
X43736695Y-17907280D01*
X43752219Y-17913710D01*
X43967537Y-17971404D01*
X44188543Y-18000500D01*
X44188550Y-18000500D01*
X44411450Y-18000500D01*
X44411457Y-18000500D01*
X44632463Y-17971404D01*
X44847781Y-17913710D01*
X44872158Y-17903612D01*
X44892032Y-17901474D01*
X44910765Y-17894488D01*
X44926058Y-17897814D01*
X44941622Y-17896141D01*
X44959502Y-17905090D01*
X44979038Y-17909340D01*
X45001318Y-17926019D01*
X45004103Y-17927413D01*
X45007292Y-17930491D01*
X45009056Y-17932255D01*
X45013836Y-17937310D01*
X45182403Y-18125942D01*
X45191069Y-18136810D01*
X45335434Y-18340281D01*
X45342831Y-18352054D01*
X45463499Y-18570393D01*
X45469533Y-18582922D01*
X45565003Y-18813415D01*
X45569595Y-18826540D01*
X45638655Y-19066261D01*
X45641749Y-19079817D01*
X45683535Y-19325767D01*
X45685092Y-19339585D01*
X45699305Y-19592714D01*
X45699500Y-19599666D01*
X45699500Y-19796520D01*
X45699305Y-19803473D01*
X45687103Y-20020749D01*
X45685546Y-20034567D01*
X45649677Y-20245674D01*
X45646583Y-20259231D01*
X45587303Y-20464997D01*
X45582710Y-20478122D01*
X45500766Y-20675953D01*
X45494733Y-20688481D01*
X45391152Y-20875896D01*
X45383754Y-20887670D01*
X45259842Y-21062309D01*
X45251172Y-21073181D01*
X45106171Y-21235437D01*
X45101392Y-21240491D01*
X45053313Y-21288570D01*
X44991990Y-21322055D01*
X44922298Y-21317071D01*
X44918179Y-21315450D01*
X44847790Y-21286293D01*
X44847783Y-21286291D01*
X44847781Y-21286290D01*
X44632463Y-21228596D01*
X44632457Y-21228595D01*
X44632452Y-21228594D01*
X44411466Y-21199501D01*
X44411463Y-21199500D01*
X44411457Y-21199500D01*
X44188543Y-21199500D01*
X44188537Y-21199500D01*
X44188533Y-21199501D01*
X43967547Y-21228594D01*
X43967540Y-21228595D01*
X43967537Y-21228596D01*
X43811895Y-21270300D01*
X43752219Y-21286290D01*
X43752209Y-21286293D01*
X43546277Y-21371593D01*
X43546273Y-21371595D01*
X43353226Y-21483052D01*
X43353217Y-21483058D01*
X43176377Y-21618751D01*
X43176370Y-21618757D01*
X43018757Y-21776370D01*
X43018751Y-21776377D01*
X42883058Y-21953217D01*
X42883052Y-21953226D01*
X42771595Y-22146273D01*
X42771593Y-22146277D01*
X42686293Y-22352209D01*
X42686290Y-22352219D01*
X42646827Y-22499500D01*
X42628597Y-22567534D01*
X42628594Y-22567547D01*
X42599501Y-22788533D01*
X42599500Y-22788549D01*
X42599500Y-23011450D01*
X42599501Y-23011466D01*
X42628594Y-23232452D01*
X42628595Y-23232457D01*
X42628596Y-23232463D01*
X42673621Y-23400499D01*
X42686290Y-23447780D01*
X42686295Y-23447796D01*
X42693228Y-23464533D01*
X42695726Y-23487770D01*
X42702652Y-23510089D01*
X42699391Y-23521857D01*
X42700697Y-23534003D01*
X42690235Y-23554901D01*
X42683996Y-23577421D01*
X42671541Y-23592245D01*
X42669421Y-23596482D01*
X42661293Y-23604445D01*
X42574067Y-23682394D01*
X42563195Y-23691065D01*
X42359719Y-23835434D01*
X42347945Y-23842831D01*
X42129606Y-23963499D01*
X42117077Y-23969533D01*
X41886584Y-24065003D01*
X41873459Y-24069595D01*
X41633738Y-24138655D01*
X41620182Y-24141749D01*
X41374232Y-24183535D01*
X41360414Y-24185092D01*
X41207608Y-24193671D01*
X41107277Y-24199305D01*
X41100333Y-24199500D01*
X40903480Y-24199500D01*
X40896528Y-24199305D01*
X40880339Y-24198395D01*
X40679250Y-24187103D01*
X40665432Y-24185546D01*
X40454325Y-24149677D01*
X40440768Y-24146583D01*
X40235002Y-24087303D01*
X40221877Y-24082710D01*
X40024046Y-24000766D01*
X40011518Y-23994733D01*
X39824103Y-23891152D01*
X39812329Y-23883754D01*
X39725009Y-23821798D01*
X39637682Y-23759836D01*
X39626824Y-23751178D01*
X39464561Y-23606171D01*
X39459507Y-23601392D01*
X39362681Y-23504566D01*
X39329196Y-23443243D01*
X39330586Y-23384795D01*
X39371404Y-23232463D01*
X39400500Y-23011457D01*
X39400500Y-22788543D01*
X39371404Y-22567537D01*
X39313710Y-22352219D01*
X39228405Y-22146274D01*
X39116948Y-21953226D01*
X38981247Y-21776376D01*
X38981242Y-21776370D01*
X38823629Y-21618757D01*
X38823622Y-21618751D01*
X38646782Y-21483058D01*
X38646780Y-21483057D01*
X38646774Y-21483052D01*
X38453726Y-21371595D01*
X38453722Y-21371593D01*
X38247790Y-21286293D01*
X38247783Y-21286291D01*
X38247781Y-21286290D01*
X38032463Y-21228596D01*
X38032457Y-21228595D01*
X38032452Y-21228594D01*
X37811466Y-21199501D01*
X37811463Y-21199500D01*
X37811457Y-21199500D01*
X37588543Y-21199500D01*
X37588537Y-21199500D01*
X37588533Y-21199501D01*
X37367547Y-21228594D01*
X37367540Y-21228595D01*
X37367537Y-21228596D01*
X37211895Y-21270300D01*
X37152219Y-21286290D01*
X37152211Y-21286292D01*
X37134318Y-21293704D01*
X37064848Y-21301170D01*
X37020898Y-21284136D01*
X36779910Y-21132717D01*
X36506634Y-21001119D01*
X36506633Y-21001118D01*
X36280067Y-20921843D01*
X36220340Y-20900945D01*
X36220336Y-20900944D01*
X36220330Y-20900942D01*
X35924645Y-20833457D01*
X35924618Y-20833453D01*
X35623226Y-20799498D01*
X35623221Y-20799498D01*
X35471564Y-20799500D01*
X35114954Y-20799500D01*
X35107348Y-20799499D01*
X35107345Y-20799499D01*
X35070947Y-20799499D01*
X35033287Y-20799499D01*
X35033286Y-20799498D01*
X35023562Y-20799117D01*
X34834857Y-20784269D01*
X34815638Y-20781225D01*
X34636335Y-20738180D01*
X34617832Y-20732169D01*
X34447462Y-20661601D01*
X34430133Y-20652771D01*
X34272901Y-20556421D01*
X34257160Y-20544984D01*
X34113420Y-20422222D01*
X34106269Y-20415612D01*
X33096170Y-19405513D01*
X39799500Y-19405513D01*
X39799500Y-19594486D01*
X39829059Y-19781118D01*
X39887454Y-19960836D01*
X39973240Y-20129199D01*
X40084310Y-20282073D01*
X40217927Y-20415690D01*
X40370801Y-20526760D01*
X40406568Y-20544984D01*
X40539163Y-20612545D01*
X40539165Y-20612545D01*
X40539168Y-20612547D01*
X40610010Y-20635565D01*
X40718881Y-20670940D01*
X40905514Y-20700500D01*
X40905519Y-20700500D01*
X41094486Y-20700500D01*
X41281118Y-20670940D01*
X41321346Y-20657869D01*
X41460832Y-20612547D01*
X41629199Y-20526760D01*
X41782073Y-20415690D01*
X41915690Y-20282073D01*
X42026760Y-20129199D01*
X42112547Y-19960832D01*
X42170940Y-19781118D01*
X42179434Y-19727489D01*
X42200500Y-19594486D01*
X42200500Y-19405513D01*
X42170940Y-19218881D01*
X42123524Y-19072953D01*
X42112547Y-19039168D01*
X42112545Y-19039165D01*
X42112545Y-19039163D01*
X42026759Y-18870800D01*
X41994602Y-18826540D01*
X41915690Y-18717927D01*
X41782073Y-18584310D01*
X41629199Y-18473240D01*
X41460836Y-18387454D01*
X41281118Y-18329059D01*
X41094486Y-18299500D01*
X41094481Y-18299500D01*
X40905519Y-18299500D01*
X40905514Y-18299500D01*
X40718881Y-18329059D01*
X40539163Y-18387454D01*
X40370800Y-18473240D01*
X40283579Y-18536610D01*
X40217927Y-18584310D01*
X40217925Y-18584312D01*
X40217924Y-18584312D01*
X40084312Y-18717924D01*
X40084312Y-18717925D01*
X40084310Y-18717927D01*
X40036851Y-18783248D01*
X39973240Y-18870800D01*
X39887454Y-19039163D01*
X39829059Y-19218881D01*
X39799500Y-19405513D01*
X33096170Y-19405513D01*
X32767817Y-19077160D01*
X32760490Y-19069162D01*
X32756146Y-19063983D01*
X32749114Y-19053458D01*
X32737986Y-19042330D01*
X32734492Y-19038164D01*
X32722579Y-19010927D01*
X32708334Y-18984839D01*
X32707409Y-18976244D01*
X32706494Y-18974150D01*
X32706907Y-18971570D01*
X32705500Y-18958481D01*
X32705500Y-17941739D01*
X32697729Y-17888407D01*
X32695573Y-17873607D01*
X32644198Y-17768517D01*
X32644196Y-17768515D01*
X32644196Y-17768514D01*
X32561485Y-17685803D01*
X32456391Y-17634426D01*
X32388261Y-17624500D01*
X32388260Y-17624500D01*
X32021740Y-17624500D01*
X32021739Y-17624500D01*
X31953608Y-17634426D01*
X31848514Y-17685803D01*
X31765802Y-17768515D01*
X31731939Y-17837784D01*
X31717950Y-17853094D01*
X31707954Y-17871270D01*
X31694858Y-17878369D01*
X31684811Y-17889366D01*
X31664764Y-17894683D01*
X31646529Y-17904569D01*
X31626950Y-17904714D01*
X31617277Y-17907280D01*
X31611317Y-17906980D01*
X31603766Y-17906416D01*
X31568993Y-17899500D01*
X31511013Y-17899500D01*
X31506414Y-17899157D01*
X31477859Y-17888407D01*
X31448597Y-17879815D01*
X31445354Y-17876170D01*
X31441025Y-17874541D01*
X31426349Y-17854812D01*
X31404235Y-17829960D01*
X31374198Y-17768517D01*
X31374196Y-17768515D01*
X31374196Y-17768514D01*
X31291485Y-17685803D01*
X31186391Y-17634426D01*
X31118261Y-17624500D01*
X31118260Y-17624500D01*
X30751740Y-17624500D01*
X30751739Y-17624500D01*
X30683608Y-17634426D01*
X30578514Y-17685803D01*
X30495803Y-17768514D01*
X30444426Y-17873608D01*
X30434500Y-17941739D01*
X30165500Y-17941739D01*
X30163209Y-17926019D01*
X30157729Y-17888407D01*
X30155573Y-17873607D01*
X30104198Y-17768517D01*
X30104196Y-17768515D01*
X30104196Y-17768514D01*
X30021485Y-17685803D01*
X29916391Y-17634426D01*
X29848261Y-17624500D01*
X29848260Y-17624500D01*
X29481740Y-17624500D01*
X29481739Y-17624500D01*
X29413608Y-17634426D01*
X29405426Y-17636955D01*
X29335564Y-17637941D01*
X29281135Y-17606164D01*
X29036819Y-17361848D01*
X29003334Y-17300525D01*
X29000500Y-17274167D01*
X29000500Y-17184110D01*
X29000500Y-17184108D01*
X28966392Y-17056814D01*
X28900500Y-16942686D01*
X28807314Y-16849500D01*
X28750250Y-16816554D01*
X28693187Y-16783608D01*
X28629539Y-16766554D01*
X28565892Y-16749500D01*
X28434108Y-16749500D01*
X28306812Y-16783608D01*
X28192686Y-16849500D01*
X28192683Y-16849502D01*
X28099502Y-16942683D01*
X28099500Y-16942686D01*
X28033608Y-17056812D01*
X27999500Y-17184108D01*
X27999500Y-17294297D01*
X27979815Y-17361336D01*
X27938621Y-17401029D01*
X27843447Y-17457314D01*
X27843438Y-17457321D01*
X27727321Y-17573438D01*
X27727314Y-17573447D01*
X27643717Y-17714803D01*
X27643716Y-17714806D01*
X27597900Y-17872504D01*
X27597899Y-17872510D01*
X27595001Y-17909340D01*
X27595000Y-17909365D01*
X27595000Y-18550000D01*
X28271000Y-18550000D01*
X28338039Y-18569685D01*
X28383794Y-18622489D01*
X28395000Y-18674000D01*
X28395000Y-18800000D01*
X28521000Y-18800000D01*
X28588039Y-18819685D01*
X28633794Y-18872489D01*
X28645000Y-18924000D01*
X28645000Y-20272295D01*
X28645001Y-20272295D01*
X28647486Y-20272100D01*
X28805198Y-20226281D01*
X28946552Y-20142685D01*
X28946561Y-20142678D01*
X29062678Y-20026561D01*
X29062687Y-20026550D01*
X29114419Y-19939075D01*
X29127802Y-19926578D01*
X29137250Y-19910890D01*
X29152810Y-19903227D01*
X29165487Y-19891391D01*
X29183503Y-19888113D01*
X29199932Y-19880024D01*
X29217165Y-19881990D01*
X29234229Y-19878887D01*
X29251154Y-19885869D01*
X29269351Y-19887946D01*
X29290203Y-19901978D01*
X29298818Y-19905532D01*
X29299586Y-19906154D01*
X29304424Y-19910105D01*
X29308517Y-19914198D01*
X29310805Y-19915316D01*
X29318935Y-19921956D01*
X29336490Y-19947595D01*
X29355674Y-19972051D01*
X29356625Y-19977003D01*
X29358408Y-19979607D01*
X29358637Y-19987478D01*
X29364500Y-20017997D01*
X29364500Y-22418989D01*
X29344815Y-22486028D01*
X29292011Y-22531783D01*
X29222853Y-22541727D01*
X29196172Y-22534408D01*
X29163776Y-22525727D01*
X29065892Y-22499500D01*
X28934108Y-22499500D01*
X28806812Y-22533608D01*
X28692686Y-22599500D01*
X28692683Y-22599502D01*
X28599502Y-22692683D01*
X28599500Y-22692686D01*
X28533608Y-22806812D01*
X28499500Y-22934108D01*
X28499500Y-23065891D01*
X28533608Y-23193187D01*
X28556286Y-23232465D01*
X28599500Y-23307314D01*
X28692686Y-23400500D01*
X28791521Y-23457563D01*
X28805362Y-23465554D01*
X28806814Y-23466392D01*
X28934108Y-23500500D01*
X28934110Y-23500500D01*
X29065890Y-23500500D01*
X29065892Y-23500500D01*
X29193186Y-23466392D01*
X29193187Y-23466391D01*
X29201037Y-23464288D01*
X29201376Y-23465554D01*
X29262513Y-23458980D01*
X29324993Y-23490253D01*
X29360647Y-23550341D01*
X29364500Y-23581010D01*
X29364500Y-28178711D01*
X29363079Y-28183548D01*
X29364114Y-28188482D01*
X29353335Y-28216734D01*
X29344815Y-28245750D01*
X29340516Y-28250332D01*
X29339208Y-28253762D01*
X29328220Y-28263441D01*
X29314066Y-28278531D01*
X29307384Y-28283455D01*
X29306814Y-28283608D01*
X29192686Y-28349500D01*
X29122402Y-28419783D01*
X29114890Y-28425320D01*
X29090481Y-28434216D01*
X29067682Y-28446666D01*
X29051573Y-28448397D01*
X29049244Y-28449247D01*
X29047446Y-28448841D01*
X29041324Y-28449500D01*
X25586018Y-28449500D01*
X25586006Y-28449499D01*
X25532487Y-28449499D01*
X25524379Y-28449234D01*
X25314702Y-28435494D01*
X25298621Y-28433377D01*
X25096527Y-28393181D01*
X25080859Y-28388983D01*
X24885744Y-28322753D01*
X24870758Y-28316546D01*
X24685950Y-28225411D01*
X24671904Y-28217301D01*
X24500580Y-28102829D01*
X24487714Y-28092957D01*
X24329963Y-27954615D01*
X24324045Y-27949072D01*
X24324041Y-27949069D01*
X24293042Y-27918071D01*
X24293042Y-27918070D01*
X24293040Y-27918069D01*
X23972522Y-27597551D01*
X23939037Y-27536228D01*
X23944021Y-27466536D01*
X23945643Y-27462415D01*
X23953393Y-27443706D01*
X23985500Y-27282290D01*
X23985500Y-27117710D01*
X23953393Y-26956294D01*
X23890411Y-26804242D01*
X23868024Y-26770738D01*
X23861749Y-26761347D01*
X24442205Y-26761347D01*
X24442205Y-26761348D01*
X24455129Y-26770738D01*
X24614306Y-26851844D01*
X24784219Y-26907053D01*
X24960669Y-26935000D01*
X25139331Y-26935000D01*
X25315780Y-26907053D01*
X25485693Y-26851844D01*
X25644867Y-26770739D01*
X25644872Y-26770737D01*
X25657794Y-26761347D01*
X25050001Y-26153554D01*
X25050000Y-26153554D01*
X24442205Y-26761347D01*
X23861749Y-26761347D01*
X23798976Y-26667400D01*
X23798973Y-26667396D01*
X23682603Y-26551026D01*
X23682599Y-26551023D01*
X23545764Y-26459592D01*
X23545755Y-26459587D01*
X23393706Y-26396607D01*
X23393698Y-26396605D01*
X23232294Y-26364500D01*
X23232290Y-26364500D01*
X23067710Y-26364500D01*
X23067705Y-26364500D01*
X22906301Y-26396605D01*
X22906293Y-26396607D01*
X22754244Y-26459587D01*
X22754235Y-26459592D01*
X22617400Y-26551023D01*
X22617396Y-26551026D01*
X22501026Y-26667396D01*
X22501023Y-26667400D01*
X22409592Y-26804235D01*
X22409587Y-26804244D01*
X22346607Y-26956293D01*
X22346605Y-26956301D01*
X22314598Y-27117214D01*
X22314598Y-27117217D01*
X22314500Y-27117710D01*
X22066597Y-27117710D01*
X22055482Y-24594502D01*
X22051741Y-23745247D01*
X22314500Y-23745247D01*
X22314500Y-25054752D01*
X22326131Y-25113229D01*
X22326132Y-25113230D01*
X22370447Y-25179552D01*
X22436769Y-25223867D01*
X22436770Y-25223868D01*
X22495247Y-25235499D01*
X22495250Y-25235500D01*
X22495252Y-25235500D01*
X23804749Y-25235500D01*
X23823663Y-25231737D01*
X23848761Y-25226745D01*
X23918353Y-25232972D01*
X23973531Y-25275834D01*
X23996776Y-25341724D01*
X23990885Y-25386680D01*
X23942947Y-25534215D01*
X23942947Y-25534218D01*
X23915000Y-25710668D01*
X23915000Y-25889331D01*
X23942946Y-26065780D01*
X23998155Y-26235693D01*
X24079260Y-26394869D01*
X24088651Y-26407793D01*
X24088652Y-26407794D01*
X24696446Y-25800000D01*
X24696446Y-25799999D01*
X24650369Y-25753922D01*
X24700000Y-25753922D01*
X24700000Y-25846078D01*
X24723852Y-25935095D01*
X24769930Y-26014905D01*
X24835095Y-26080070D01*
X24914905Y-26126148D01*
X25003922Y-26150000D01*
X25096078Y-26150000D01*
X25185095Y-26126148D01*
X25264905Y-26080070D01*
X25330070Y-26014905D01*
X25376148Y-25935095D01*
X25400000Y-25846078D01*
X25400000Y-25799999D01*
X25403554Y-25799999D01*
X25403554Y-25800000D01*
X26011347Y-26407794D01*
X26020737Y-26394872D01*
X26020739Y-26394867D01*
X26101844Y-26235693D01*
X26157053Y-26065780D01*
X26185000Y-25889331D01*
X26185000Y-25710668D01*
X26157053Y-25534219D01*
X26101844Y-25364306D01*
X26020738Y-25205129D01*
X26011347Y-25192205D01*
X25403554Y-25799999D01*
X25400000Y-25799999D01*
X25400000Y-25753922D01*
X25376148Y-25664905D01*
X25330070Y-25585095D01*
X25264905Y-25519930D01*
X25185095Y-25473852D01*
X25096078Y-25450000D01*
X25003922Y-25450000D01*
X24914905Y-25473852D01*
X24835095Y-25519930D01*
X24769930Y-25585095D01*
X24723852Y-25664905D01*
X24700000Y-25753922D01*
X24650369Y-25753922D01*
X24080570Y-25184123D01*
X24071397Y-25179901D01*
X24050321Y-25175474D01*
X24040289Y-25165584D01*
X24027492Y-25159695D01*
X24015902Y-25141543D01*
X24000564Y-25126423D01*
X23996723Y-25111507D01*
X23989891Y-25100806D01*
X23987603Y-25076083D01*
X23984971Y-25065857D01*
X23984996Y-25057280D01*
X23985500Y-25054748D01*
X23985500Y-24838651D01*
X24442204Y-24838651D01*
X25050000Y-25446446D01*
X25050001Y-25446446D01*
X25657794Y-24838652D01*
X25657793Y-24838651D01*
X25644869Y-24829260D01*
X25485693Y-24748155D01*
X25315780Y-24692946D01*
X25139331Y-24665000D01*
X24960669Y-24665000D01*
X24784219Y-24692946D01*
X24614306Y-24748155D01*
X24455127Y-24829262D01*
X24442205Y-24838651D01*
X24442204Y-24838651D01*
X23985500Y-24838651D01*
X23985500Y-23745252D01*
X23985500Y-23745249D01*
X23985499Y-23745247D01*
X23973868Y-23686770D01*
X23973867Y-23686769D01*
X23929552Y-23620447D01*
X23863230Y-23576132D01*
X23863229Y-23576131D01*
X23804752Y-23564500D01*
X23804748Y-23564500D01*
X22495252Y-23564500D01*
X22495247Y-23564500D01*
X22436770Y-23576131D01*
X22436769Y-23576132D01*
X22370447Y-23620447D01*
X22326132Y-23686769D01*
X22326131Y-23686770D01*
X22314500Y-23745247D01*
X22051741Y-23745247D01*
X22051717Y-23739706D01*
X22033880Y-19690649D01*
X27595000Y-19690649D01*
X27597899Y-19727489D01*
X27597900Y-19727495D01*
X27643716Y-19885193D01*
X27643717Y-19885196D01*
X27727314Y-20026552D01*
X27727321Y-20026561D01*
X27843438Y-20142678D01*
X27843447Y-20142685D01*
X27984801Y-20226281D01*
X28142514Y-20272100D01*
X28142511Y-20272100D01*
X28144998Y-20272295D01*
X28145000Y-20272295D01*
X28145000Y-19050000D01*
X27595000Y-19050000D01*
X27595000Y-19690649D01*
X22033880Y-19690649D01*
X22030834Y-18999184D01*
X22016802Y-15814107D01*
X30749500Y-15814107D01*
X30749500Y-15945890D01*
X30783608Y-16073186D01*
X30816554Y-16130249D01*
X30849500Y-16187313D01*
X30942686Y-16280499D01*
X31056814Y-16346391D01*
X31184108Y-16380499D01*
X31184110Y-16380499D01*
X31315890Y-16380499D01*
X31315892Y-16380499D01*
X31443186Y-16346391D01*
X31557314Y-16280499D01*
X31650500Y-16187313D01*
X31716392Y-16073185D01*
X31750500Y-15945891D01*
X31750500Y-15814107D01*
X31716392Y-15686813D01*
X31650500Y-15572685D01*
X31557314Y-15479499D01*
X31500250Y-15446553D01*
X31443187Y-15413607D01*
X31379539Y-15396553D01*
X31315892Y-15379499D01*
X31184108Y-15379499D01*
X31056812Y-15413607D01*
X30942686Y-15479499D01*
X30942683Y-15479501D01*
X30849502Y-15572682D01*
X30849500Y-15572685D01*
X30783608Y-15686811D01*
X30749500Y-15814107D01*
X22016802Y-15814107D01*
X22016769Y-15806526D01*
X22011633Y-14640691D01*
X22349500Y-14640691D01*
X22349500Y-14759309D01*
X22380201Y-14873886D01*
X22439511Y-14976613D01*
X22523387Y-15060489D01*
X22626114Y-15119799D01*
X22740691Y-15150500D01*
X22740694Y-15150500D01*
X22859306Y-15150500D01*
X22859309Y-15150500D01*
X22973886Y-15119799D01*
X23076613Y-15060489D01*
X23160489Y-14976613D01*
X23219799Y-14873886D01*
X23250500Y-14759309D01*
X23250500Y-14640691D01*
X23219799Y-14526114D01*
X23160489Y-14423387D01*
X23076613Y-14339511D01*
X22973886Y-14280201D01*
X22859309Y-14249500D01*
X22740691Y-14249500D01*
X22626114Y-14280201D01*
X22626112Y-14280201D01*
X22626112Y-14280202D01*
X22523387Y-14339511D01*
X22523384Y-14339513D01*
X22439513Y-14423384D01*
X22439511Y-14423387D01*
X22390841Y-14507686D01*
X22380201Y-14526114D01*
X22349500Y-14640691D01*
X22011633Y-14640691D01*
X22011600Y-14633110D01*
X22000549Y-12124546D01*
X22019938Y-12057421D01*
X22072540Y-12011434D01*
X22124548Y-12000000D01*
X30995973Y-12000000D01*
X31063012Y-12019685D01*
G37*
G04 #@! TD.AperFunction*
M02*
