M48
; DRILL file {KiCad 9.0.0} date 2025-08-18T03:11:07+0300
; FORMAT={-:-/ absolute / inch / decimal}
; #@! TF.CreationDate,2025-08-18T03:11:07+03:00
; #@! TF.GenerationSoftware,Kicad,Pcbnew,9.0.0
; #@! TF.FileFunction,NonPlated,1,4,NPTH
FMAT,2
INCH
; #@! TA.AperFunction,NonPlated,NPTH,ComponentDrill
T1C0.0197
; #@! TA.AperFunction,NonPlated,NPTH,ComponentDrill
T2C0.1083
; #@! TA.AperFunction,NonPlated,NPTH,ComponentDrill
T3C0.1181
; #@! TA.AperFunction,NonPlated,NPTH,ComponentDrill
T4C0.1260
%
G90
G05
T1
X-2.2598Y-0.189
X-2.2559Y-0.7953
X-2.2461Y-0.2224
X-2.2461Y-0.7677
X-2.2362Y-0.7402
X-2.2343Y-0.2559
X-2.2264Y-0.7067
X-2.2244Y-0.2894
X-2.2185Y-0.6752
X-2.2165Y-0.3228
X-2.2126Y-0.6437
X-2.2106Y-0.3563
X-2.2067Y-0.6122
X-2.2047Y-0.3898
X-2.2028Y-0.5787
X-2.2008Y-0.4213
X-2.1988Y-0.4528
X-2.1988Y-0.4823
X-2.1988Y-0.5138
X-2.1988Y-0.5472
X-2.0197Y-0.1398
X-2.0197Y-0.1693
X-2.0197Y-0.1988
X-2.0197Y-0.2283
X-2.0197Y-0.2579
X-2.0197Y-0.2874
X-2.0197Y-0.3169
X-2.0197Y-0.3465
X-2.0197Y-0.376
X-2.0197Y-0.4055
X-2.0197Y-0.435
X-2.0197Y-0.4646
X-2.0197Y-0.4941
X-2.0197Y-0.5236
X-2.0197Y-0.5531
X-2.0197Y-0.5827
X-2.0197Y-0.6122
X-2.0197Y-0.6417
X-2.0197Y-0.6713
X-2.0197Y-0.7008
X-2.0197Y-0.7303
X-2.0197Y-0.7598
X-2.0197Y-0.7894
X-2.0197Y-0.8189
X-2.0197Y-0.8484
T2
X-0.9106Y0.6299
X-0.9106Y-1.6535
X-0.0051Y0.6299
X-0.0051Y-1.6535
T3
X0.6181Y-0.1004
X1.0173Y-0.1004
T4
X-1.8898Y1.9685
X-1.8898Y-1.9685
X1.8898Y1.9685
X1.8898Y-1.9685
M30
