G04 #@! TF.GenerationSoftware,KiCad,Pcbnew,9.0.0*
G04 #@! TF.CreationDate,2025-08-18T03:10:06+03:00*
G04 #@! TF.ProjectId,MicrogreenFarm_second_try,4d696372-6f67-4726-9565-6e4661726d5f,rev?*
G04 #@! TF.SameCoordinates,Original*
G04 #@! TF.FileFunction,Copper,L3,Inr*
G04 #@! TF.FilePolarity,Positive*
%FSLAX46Y46*%
G04 Gerber Fmt 4.6, Leading zero omitted, Abs format (unit mm)*
G04 Created by KiCad (PCBNEW 9.0.0) date 2025-08-18 03:10:06*
%MOMM*%
%LPD*%
G01*
G04 APERTURE LIST*
G04 Aperture macros list*
%AMRoundRect*
0 Rectangle with rounded corners*
0 $1 Rounding radius*
0 $2 $3 $4 $5 $6 $7 $8 $9 X,Y pos of 4 corners*
0 Add a 4 corners polygon primitive as box body*
4,1,4,$2,$3,$4,$5,$6,$7,$8,$9,$2,$3,0*
0 Add four circle primitives for the rounded corners*
1,1,$1+$1,$2,$3*
1,1,$1+$1,$4,$5*
1,1,$1+$1,$6,$7*
1,1,$1+$1,$8,$9*
0 Add four rect primitives between the rounded corners*
20,1,$1+$1,$2,$3,$4,$5,0*
20,1,$1+$1,$4,$5,$6,$7,0*
20,1,$1+$1,$6,$7,$8,$9,0*
20,1,$1+$1,$8,$9,$2,$3,0*%
G04 Aperture macros list end*
G04 #@! TA.AperFunction,ComponentPad*
%ADD10RoundRect,0.250000X-0.725000X0.600000X-0.725000X-0.600000X0.725000X-0.600000X0.725000X0.600000X0*%
G04 #@! TD*
G04 #@! TA.AperFunction,ComponentPad*
%ADD11O,1.950000X1.700000*%
G04 #@! TD*
G04 #@! TA.AperFunction,ComponentPad*
%ADD12R,1.700000X1.700000*%
G04 #@! TD*
G04 #@! TA.AperFunction,ComponentPad*
%ADD13O,1.700000X1.700000*%
G04 #@! TD*
G04 #@! TA.AperFunction,ComponentPad*
%ADD14RoundRect,0.250000X0.600000X0.750000X-0.600000X0.750000X-0.600000X-0.750000X0.600000X-0.750000X0*%
G04 #@! TD*
G04 #@! TA.AperFunction,ComponentPad*
%ADD15O,1.700000X2.000000*%
G04 #@! TD*
G04 #@! TA.AperFunction,ComponentPad*
%ADD16RoundRect,0.250000X0.600000X0.725000X-0.600000X0.725000X-0.600000X-0.725000X0.600000X-0.725000X0*%
G04 #@! TD*
G04 #@! TA.AperFunction,ComponentPad*
%ADD17O,1.700000X1.950000*%
G04 #@! TD*
G04 #@! TA.AperFunction,ComponentPad*
%ADD18R,2.000000X2.000000*%
G04 #@! TD*
G04 #@! TA.AperFunction,ComponentPad*
%ADD19C,2.000000*%
G04 #@! TD*
G04 #@! TA.AperFunction,ComponentPad*
%ADD20C,3.000000*%
G04 #@! TD*
G04 #@! TA.AperFunction,ComponentPad*
%ADD21RoundRect,0.250000X0.550000X-0.550000X0.550000X0.550000X-0.550000X0.550000X-0.550000X-0.550000X0*%
G04 #@! TD*
G04 #@! TA.AperFunction,ComponentPad*
%ADD22C,1.600000*%
G04 #@! TD*
G04 #@! TA.AperFunction,ComponentPad*
%ADD23O,3.000000X2.000000*%
G04 #@! TD*
G04 #@! TA.AperFunction,ComponentPad*
%ADD24R,1.270000X1.270000*%
G04 #@! TD*
G04 #@! TA.AperFunction,ComponentPad*
%ADD25C,1.270000*%
G04 #@! TD*
G04 #@! TA.AperFunction,ComponentPad*
%ADD26R,1.508000X1.508000*%
G04 #@! TD*
G04 #@! TA.AperFunction,ComponentPad*
%ADD27C,1.508000*%
G04 #@! TD*
G04 #@! TA.AperFunction,ComponentPad*
%ADD28R,1.288000X1.288000*%
G04 #@! TD*
G04 #@! TA.AperFunction,ComponentPad*
%ADD29C,1.288000*%
G04 #@! TD*
G04 #@! TA.AperFunction,ComponentPad*
%ADD30RoundRect,0.250000X-0.600000X-0.750000X0.600000X-0.750000X0.600000X0.750000X-0.600000X0.750000X0*%
G04 #@! TD*
G04 #@! TA.AperFunction,ComponentPad*
%ADD31RoundRect,0.250000X0.750000X-0.600000X0.750000X0.600000X-0.750000X0.600000X-0.750000X-0.600000X0*%
G04 #@! TD*
G04 #@! TA.AperFunction,ComponentPad*
%ADD32O,2.000000X1.700000*%
G04 #@! TD*
G04 #@! TA.AperFunction,ComponentPad*
%ADD33C,1.108000*%
G04 #@! TD*
G04 #@! TA.AperFunction,ComponentPad*
%ADD34R,3.000000X3.000000*%
G04 #@! TD*
G04 #@! TA.AperFunction,ViaPad*
%ADD35C,0.600000*%
G04 #@! TD*
G04 #@! TA.AperFunction,ViaPad*
%ADD36C,0.500000*%
G04 #@! TD*
G04 #@! TA.AperFunction,Conductor*
%ADD37C,3.000000*%
G04 #@! TD*
G04 #@! TA.AperFunction,Conductor*
%ADD38C,0.200000*%
G04 #@! TD*
G04 #@! TA.AperFunction,Conductor*
%ADD39C,1.000000*%
G04 #@! TD*
G04 APERTURE END LIST*
D10*
X-40275000Y-28500000D03*
D11*
X-40275000Y-31000000D03*
X-40275000Y-33500000D03*
X-40275000Y-36000000D03*
X-40275000Y-38500000D03*
X-40275000Y-41000000D03*
D12*
X-35560000Y5080000D03*
D13*
X-33020000Y5080000D03*
X-30480000Y5080000D03*
D14*
X26000000Y-8250000D03*
D15*
X23500000Y-8250000D03*
D12*
X-35560000Y2540000D03*
D13*
X-33020000Y2540000D03*
X-30480000Y2540000D03*
D14*
X17250000Y-8250000D03*
D15*
X14750000Y-8250000D03*
D12*
X-35560000Y-7620000D03*
D13*
X-33020000Y-7620000D03*
X-30480000Y-7620000D03*
D16*
X41000000Y-8250000D03*
D17*
X38500000Y-8250000D03*
X36000000Y-8250000D03*
X33500000Y-8250000D03*
D12*
X-35560000Y-2540000D03*
D13*
X-33020000Y-2540000D03*
X-30480000Y-2540000D03*
D18*
X34500000Y16500000D03*
D19*
X30700000Y16500000D03*
D12*
X-35560000Y7620000D03*
D13*
X-33020000Y7620000D03*
X-30480000Y7620000D03*
D12*
X-35560000Y15240000D03*
D13*
X-33020000Y15240000D03*
X-30480000Y15240000D03*
D19*
X41000000Y-19500000D03*
D20*
X37700000Y-16300000D03*
X37700000Y-22900000D03*
X44300000Y-16300000D03*
X44300000Y-22900000D03*
D12*
X-35560000Y-5080000D03*
D13*
X-33020000Y-5080000D03*
X-30480000Y-5080000D03*
D21*
X30210000Y195000D03*
D22*
X32750000Y195000D03*
X35290000Y195000D03*
X35290000Y7815000D03*
X32750000Y7815000D03*
X30210000Y7815000D03*
D23*
X18400000Y32100000D03*
X18400000Y42300000D03*
X18400000Y11800000D03*
X18400000Y19300000D03*
D10*
X-33225000Y-33550000D03*
D11*
X-33225000Y-36050000D03*
X-33225000Y-38550000D03*
X-33225000Y-41050000D03*
D12*
X-35560000Y12700000D03*
D13*
X-33020000Y12700000D03*
X-30480000Y12700000D03*
D24*
X23150000Y-24400000D03*
D25*
X23150000Y-27200000D03*
X25050000Y-25800000D03*
D12*
X-35560000Y10160000D03*
D13*
X-33020000Y10160000D03*
X-30480000Y10160000D03*
D26*
X-1400000Y11130000D03*
D27*
X1140000Y11130000D03*
X-1400000Y8590000D03*
X1140000Y8590000D03*
X-1400000Y6050000D03*
X1140000Y6050000D03*
X-1400000Y3510000D03*
X1140000Y3510000D03*
X-1400000Y970000D03*
X1140000Y970000D03*
X-1400000Y-1570000D03*
X1140000Y-1570000D03*
X-1400000Y-4110000D03*
X1140000Y-4110000D03*
X-1400000Y-6650000D03*
X1140000Y-6650000D03*
X-1400000Y-9190000D03*
X1140000Y-9190000D03*
X-1400000Y-11730000D03*
X1140000Y-11730000D03*
X-1400000Y-14270000D03*
X1140000Y-14270000D03*
X-1400000Y-16810000D03*
X1140000Y-16810000D03*
X-1400000Y-19350000D03*
X1140000Y-19350000D03*
X-1400000Y-21890000D03*
X1140000Y-21890000D03*
X-1400000Y-24430000D03*
X1140000Y-24430000D03*
X-1400000Y-26970000D03*
X1140000Y-26970000D03*
X-1400000Y-29510000D03*
X1140000Y-29510000D03*
X-1400000Y-32050000D03*
X1140000Y-32050000D03*
X-1400000Y-34590000D03*
X1140000Y-34590000D03*
X-1400000Y-37130000D03*
X1140000Y-37130000D03*
D12*
X-35560000Y0D03*
D13*
X-33020000Y0D03*
X-30480000Y0D03*
D28*
X32050000Y-39730000D03*
D29*
X32050000Y-37190000D03*
X32050000Y-29570000D03*
X32050000Y-24490000D03*
D30*
X9500000Y-34000000D03*
D15*
X12000000Y-34000000D03*
D10*
X-23655000Y-19852500D03*
D11*
X-23655000Y-22352500D03*
X-23655000Y-24852500D03*
D31*
X-9980000Y-34852500D03*
D32*
X-9980000Y-32352500D03*
D33*
X24639600Y5300000D03*
X16959600Y5300000D03*
X19519600Y5300000D03*
X22079600Y5300000D03*
X27199600Y5300000D03*
X14399600Y5300000D03*
D10*
X-23880000Y4147500D03*
D11*
X-23880000Y1647500D03*
X-23880000Y-852500D03*
X-23880000Y-3352500D03*
X-23880000Y-5852500D03*
X-23880000Y-8352500D03*
X-23880000Y-10852500D03*
X-23880000Y-13352500D03*
D31*
X-22580000Y-34752500D03*
D32*
X-22580000Y-32252500D03*
D34*
X-592500Y34250000D03*
D20*
X-592500Y23500000D03*
X-39092500Y23500000D03*
X-39092500Y31500000D03*
D35*
X-69980000Y-1400000D03*
X-71755000Y-1675000D03*
X-74880000Y-19700000D03*
X-75380000Y-14950000D03*
X-81930000Y-21750000D03*
X-71580000Y-3600000D03*
X-69780000Y-3100000D03*
X-79180000Y-19500000D03*
X-69355000Y-21575000D03*
X-83080000Y-21225000D03*
X-79380000Y-14975000D03*
X-89155000Y-4305000D03*
X-89655000Y-4880000D03*
X-59935439Y-17669897D03*
X-60040000Y-18640000D03*
X-59910000Y-16680000D03*
X-90215000Y-5405000D03*
X-84180000Y-7500000D03*
X12800000Y-16500000D03*
D36*
X-6300000Y23050000D03*
D35*
X-17200000Y-19300000D03*
X40200000Y-3300000D03*
X-43500000Y-19500000D03*
X-18300000Y-17100000D03*
D36*
X-32300000Y27450000D03*
X-34300000Y23050000D03*
D35*
X-18300000Y-19300000D03*
X-17200000Y-17100000D03*
X24700000Y1900000D03*
X17500000Y2400000D03*
X9600000Y-28900000D03*
D36*
X-34200000Y27550000D03*
D35*
X16400000Y-23300000D03*
X12800000Y-15100000D03*
D36*
X-8200000Y27450000D03*
X-6300000Y27450000D03*
D35*
X18725000Y-34205000D03*
X-10700000Y-17200000D03*
D36*
X-7300000Y25250000D03*
X-33250000Y25250000D03*
X-32200000Y22950000D03*
X-8300000Y23150000D03*
D35*
X-9600000Y-17200000D03*
X40200000Y-1900000D03*
X45000000Y-13000000D03*
X50000000Y-32000000D03*
X50000000Y-30000000D03*
D36*
X27000000Y-33200000D03*
D35*
X38000000Y-34000000D03*
X32000000Y-34000000D03*
X22500000Y-28700000D03*
X42000000Y-34000000D03*
D36*
X25600000Y-34600000D03*
D35*
X39000000Y-13000000D03*
X23000000Y-17000000D03*
D36*
X23675000Y-34205000D03*
D35*
X50000000Y-24000000D03*
D36*
X29767500Y-32600000D03*
D35*
X50000000Y-34000000D03*
X23000000Y-22000000D03*
X47000000Y-13000000D03*
X50000000Y-18000000D03*
X28000000Y-34000000D03*
X48000000Y-34000000D03*
D36*
X27000000Y-34600000D03*
D35*
X46000000Y-34000000D03*
X40000000Y-34000000D03*
D36*
X30300000Y-17000000D03*
D35*
X49000000Y-13000000D03*
X37000000Y-13000000D03*
X26900000Y-13200000D03*
X35000000Y-13000000D03*
X41000000Y-13000000D03*
X50000000Y-22000000D03*
X36000000Y-34000000D03*
D36*
X22800000Y-19700000D03*
D35*
X50000000Y-16000000D03*
X30000000Y-34000000D03*
X34000000Y-34000000D03*
X50000000Y-14000000D03*
X25000000Y-13200000D03*
X43000000Y-13000000D03*
X50000000Y-26000000D03*
X50000000Y-20000000D03*
X50000000Y-28000000D03*
X44000000Y-34000000D03*
X31500000Y-12500000D03*
D36*
X22800000Y-14700000D03*
X41200000Y7500000D03*
D35*
X-43500000Y-4495554D03*
D36*
X-18800000Y-10700000D03*
D35*
X-6500000Y-10250000D03*
X-9500000Y-10500000D03*
X-43500000Y-10500000D03*
X-27200000Y-2300000D03*
D36*
X-27600000Y9300000D03*
D35*
X-27633530Y-33535000D03*
X-33000000Y-10300000D03*
X-4000000Y-36000000D03*
X-28000000Y-35000000D03*
X16000000Y-29400000D03*
X-28500000Y-9503500D03*
X-4483550Y-20483550D03*
X3000000Y-14900000D03*
X4000000Y-22000000D03*
D36*
X-2600000Y-25800000D03*
D35*
X5200000Y-15755000D03*
X6875735Y-15224265D03*
X-43500000Y-13500000D03*
X-38500000Y11600000D03*
X11000000Y-22400000D03*
X-43500000Y-16500000D03*
X7750000Y-15250000D03*
X-15750000Y-1000000D03*
X-27900000Y-36600000D03*
X-21200000Y-26700000D03*
X-15000000Y-1500000D03*
X-43450000Y-7450000D03*
X6750000Y-8000000D03*
X6750000Y-4500000D03*
X-9572050Y-13936191D03*
X-2555571Y-17507041D03*
X-3500000Y-17410000D03*
X-10800000Y-12300000D03*
X22000000Y-31000000D03*
X29000000Y-23000000D03*
X31250000Y-15879999D03*
X30750000Y-26250000D03*
X25200000Y-32700000D03*
X29500000Y-28750000D03*
X28500000Y-17250000D03*
X5200000Y-17800000D03*
X29665000Y-13850000D03*
X28250000Y-14860000D03*
X-5600000Y10000000D03*
D37*
X32750000Y13250000D02*
X32750000Y7815000D01*
X30700000Y16500000D02*
X30700000Y15300000D01*
X30700000Y15300000D02*
X32750000Y13250000D01*
X-37000000Y32000000D02*
X-40000000Y29000000D01*
X-46850000Y-43150000D02*
X-42000000Y-48000000D01*
X-14980000Y-48000000D02*
X-14980000Y-35152500D01*
X-37000000Y32000000D02*
X-38592500Y32000000D01*
D38*
X-46850000Y-6649000D02*
X-44696554Y-4495554D01*
D37*
X-39092500Y31500000D02*
X-39092500Y29907500D01*
X-23686659Y-34903500D02*
X-9980000Y-34903500D01*
X-40000000Y30592500D02*
X-40000000Y29000000D01*
X-38592500Y32000000D02*
X-40000000Y30592500D01*
X-46850000Y22150000D02*
X-40000000Y29000000D01*
X-46850000Y-6649000D02*
X-46850000Y22150000D01*
X-42000000Y-48000000D02*
X28100000Y-48000000D01*
X32050000Y-44050000D02*
X32050000Y-39730000D01*
X-39092500Y29907500D02*
X-40000000Y29000000D01*
D38*
X-44696554Y-4495554D02*
X-43500000Y-4495554D01*
D37*
X-46850000Y-6649000D02*
X-46850000Y-43150000D01*
X28100000Y-48000000D02*
X32050000Y-44050000D01*
D38*
X-43440000Y-4495554D02*
X-43500000Y-4495554D01*
D39*
X-11970000Y11130000D02*
X-20840000Y20000000D01*
X-21210000Y-12260000D02*
X-21210000Y-18140000D01*
X-22617500Y-10852500D02*
X-21210000Y-12260000D01*
X-1400000Y11130000D02*
X-11970000Y11130000D01*
X-32877500Y-19852500D02*
X-35560000Y-17170000D01*
X-31720000Y20000000D02*
X-35560000Y16160000D01*
X-23655000Y-19852500D02*
X-32877500Y-19852500D01*
X-33225000Y-33295000D02*
X-33225000Y-33550000D01*
X-35560000Y-23680000D02*
X-35560000Y-30960000D01*
X-35560000Y-17170000D02*
X-35560000Y-23680000D01*
X-21210000Y-18140000D02*
X-22922500Y-19852500D01*
X-23880000Y-10852500D02*
X-22617500Y-10852500D01*
X-35560000Y16160000D02*
X-35560000Y15240000D01*
X-35560000Y-7620000D02*
X-35560000Y-17170000D01*
X-35560000Y-23680000D02*
X-40275000Y-28395000D01*
X-40275000Y-28395000D02*
X-40275000Y-28500000D01*
X-22922500Y-19852500D02*
X-23655000Y-19852500D01*
X-20840000Y20000000D02*
X-31720000Y20000000D01*
X-35560000Y-30960000D02*
X-33225000Y-33295000D01*
X-35560000Y16160000D02*
X-35560000Y-7620000D01*
M02*
